<svg width="20" height="20" viewBox="0 0 20 20" fill="none" xmlns="http://www.w3.org/2000/svg">
<path d="M10 0C4.49 0 0 4.49 0 10C0 15.51 4.49 20 10 20C15.51 20 20 15.51 20 10C20 4.49 15.51 0 10 0ZM19.13 9.57H17.6C17.5381 8.52633 17.266 7.50593 16.8 6.57L18.13 5.8C18.71 6.93 19.07 8.2 19.13 9.56V9.57ZM17.69 5.06L16.36 5.84C15.7843 4.96434 15.0357 4.21567 14.16 3.64L14.94 2.31C16.0402 3.03017 16.9798 3.9698 17.7 5.07L17.69 5.06ZM10.43 0.87C11.79 0.94 13.06 1.29 14.19 1.87L13.42 3.2C12.51 2.74 11.5 2.46 10.42 2.4V0.87H10.43ZM9.57 0.87V2.4C8.5 2.47 7.48 2.74 6.57 3.2L5.8 1.87C6.93 1.29 8.2 0.93 9.56 0.87H9.57ZM5.06 2.31L5.83 3.64C4.97 4.21 4.21 4.97 3.64 5.83L2.31 5.06C3.03017 3.9598 3.9698 3.02017 5.07 2.3L5.06 2.31ZM1.87 5.81L3.2 6.58C2.74 7.49 2.46 8.5 2.4 9.58H0.87C0.94 8.22 1.29 6.95 1.87 5.82V5.81ZM0.87 10.43H2.4C2.47 11.5 2.74 12.52 3.2 13.43L1.87 14.2C1.29 13.07 0.93 11.8 0.87 10.44V10.43ZM2.31 14.94L3.64 14.16C4.21 15.03 4.97 15.79 5.84 16.36L5.06 17.69C3.9598 16.9698 3.02017 16.0302 2.3 14.93L2.31 14.94ZM9.57 19.13C8.25991 19.0672 6.97818 18.7264 5.81 18.13L6.58 16.8C7.49 17.26 8.5 17.54 9.58 17.6V19.13H9.57ZM9.57 16.73C8.66 16.68 7.79 16.43 7.01 16.04C6.74531 15.924 6.49386 15.7798 6.26 15.61C5.51007 15.1201 4.86992 14.4799 4.38 13.73C4.21019 13.4961 4.06603 13.2447 3.95 12.98C3.56 12.2 3.31 11.33 3.27 10.42C3.24 10.28 3.24 10.13 3.24 9.99C3.24 9.85 3.24 9.7 3.27 9.56C3.31 8.65 3.56 7.78 3.95 7C4.06 6.74 4.21 6.49 4.38 6.25C4.87 5.5 5.51 4.86 6.26 4.37C6.5 4.2 6.75 4.05 7.01 3.94C7.79 3.55 8.66 3.3 9.57 3.26C9.71 3.23 9.86 3.23 10 3.23C10.14 3.23 10.29 3.23 10.43 3.26C11.34 3.3 12.21 3.55 12.99 3.94C13.25 4.05 13.5 4.2 13.74 4.37C14.49 4.86 15.13 5.5 15.62 6.25C15.79 6.49 15.94 6.74 16.05 7C16.44 7.78 16.69 8.65 16.74 9.56C16.76 9.7 16.76 9.85 16.76 9.99C16.76 10.13 16.76 10.28 16.74 10.42C16.69 11.33 16.44 12.2 16.05 12.98C15.94 13.24 15.79 13.49 15.62 13.73C15.13 14.48 14.49 15.12 13.74 15.61C13.5 15.78 13.25 15.93 12.99 16.04C12.21 16.43 11.34 16.68 10.43 16.73C10.29 16.75 10.14 16.75 10 16.75C9.86 16.75 9.71 16.75 9.57 16.73ZM10.43 19.13V17.6C11.5 17.53 12.52 17.26 13.43 16.8L14.2 18.13C13.07 18.71 11.8 19.07 10.44 19.13H10.43ZM14.94 17.69L14.17 16.36C15.03 15.79 15.79 15.03 16.36 14.17L17.69 14.94C16.9698 16.0402 16.0302 16.9798 14.93 17.7L14.94 17.69ZM18.13 14.19L16.8 13.42C17.26 12.51 17.54 11.5 17.6 10.42H19.13C19.0672 11.7301 18.7264 13.0118 18.13 14.18V14.19Z" fill="#E1E1E1"/>
</svg>
