<svg width="42" height="39" viewBox="0 0 42 39" fill="none" xmlns="http://www.w3.org/2000/svg">
<path d="M20.75 2C15.24 2 10.75 6.49 10.75 12C10.75 17.51 15.24 22 20.75 22C26.26 22 30.75 17.51 30.75 12C30.75 6.49 26.26 2 20.75 2ZM29.88 11.57H28.35C28.2881 10.5263 28.016 9.50593 27.55 8.57L28.88 7.8C29.46 8.93 29.82 10.2 29.88 11.56V11.57ZM28.44 7.06L27.11 7.84C26.5343 6.96434 25.7857 6.21567 24.91 5.64L25.69 4.31C26.7902 5.03017 27.7298 5.9698 28.45 7.07L28.44 7.06ZM21.18 2.87C22.54 2.94 23.81 3.29 24.94 3.87L24.17 5.2C23.26 4.74 22.25 4.46 21.17 4.4V2.87H21.18ZM20.32 2.87V4.4C19.25 4.47 18.23 4.74 17.32 5.2L16.55 3.87C17.68 3.29 18.95 2.93 20.31 2.87H20.32ZM15.81 4.31L16.58 5.64C15.72 6.21 14.96 6.97 14.39 7.83L13.06 7.06C13.7802 5.9598 14.7198 5.02017 15.82 4.3L15.81 4.31ZM12.62 7.81L13.95 8.58C13.49 9.49 13.21 10.5 13.15 11.58H11.62C11.69 10.22 12.04 8.95 12.62 7.82V7.81ZM11.62 12.43H13.15C13.22 13.5 13.49 14.52 13.95 15.43L12.62 16.2C12.04 15.07 11.68 13.8 11.62 12.44V12.43ZM13.06 16.94L14.39 16.16C14.96 17.03 15.72 17.79 16.59 18.36L15.81 19.69C14.7098 18.9698 13.7702 18.0302 13.05 16.93L13.06 16.94ZM20.32 21.13C19.0099 21.0672 17.7282 20.7264 16.56 20.13L17.33 18.8C18.24 19.26 19.25 19.54 20.33 19.6V21.13H20.32ZM20.32 18.73C19.41 18.68 18.54 18.43 17.76 18.04C17.4953 17.924 17.2439 17.7798 17.01 17.61C16.2601 17.1201 15.6199 16.4799 15.13 15.73C14.9602 15.4961 14.816 15.2447 14.7 14.98C14.31 14.2 14.06 13.33 14.02 12.42C13.99 12.28 13.99 12.13 13.99 11.99C13.99 11.85 13.99 11.7 14.02 11.56C14.06 10.65 14.31 9.78 14.7 9C14.81 8.74 14.96 8.49 15.13 8.25C15.62 7.5 16.26 6.86 17.01 6.37C17.25 6.2 17.5 6.05 17.76 5.94C18.54 5.55 19.41 5.3 20.32 5.26C20.46 5.23 20.61 5.23 20.75 5.23C20.89 5.23 21.04 5.23 21.18 5.26C22.09 5.3 22.96 5.55 23.74 5.94C24 6.05 24.25 6.2 24.49 6.37C25.24 6.86 25.88 7.5 26.37 8.25C26.54 8.49 26.69 8.74 26.8 9C27.19 9.78 27.44 10.65 27.49 11.56C27.51 11.7 27.51 11.85 27.51 11.99C27.51 12.13 27.51 12.28 27.49 12.42C27.44 13.33 27.19 14.2 26.8 14.98C26.69 15.24 26.54 15.49 26.37 15.73C25.88 16.48 25.24 17.12 24.49 17.61C24.25 17.78 24 17.93 23.74 18.04C22.96 18.43 22.09 18.68 21.18 18.73C21.04 18.75 20.89 18.75 20.75 18.75C20.61 18.75 20.46 18.75 20.32 18.73ZM21.18 21.13V19.6C22.25 19.53 23.27 19.26 24.18 18.8L24.95 20.13C23.82 20.71 22.55 21.07 21.19 21.13H21.18ZM25.69 19.69L24.92 18.36C25.78 17.79 26.54 17.03 27.11 16.17L28.44 16.94C27.7198 18.0402 26.7802 18.9798 25.68 19.7L25.69 19.69ZM28.88 16.19L27.55 15.42C28.01 14.51 28.29 13.5 28.35 12.42H29.88C29.8172 13.7301 29.4764 15.0118 28.88 16.18V16.19Z" fill="#FAFAFA"/>
<path d="M21.26 11.56V9.09999C21.73 9.28999 22.05 9.72999 22.05 10.25C22.05 10.53 22.27 10.75 22.55 10.75C22.83 10.75 23.05 10.53 23.05 10.25C23.05 9.17999 22.28 8.27999 21.26 8.05999V7.48999C21.26 7.20999 21.04 6.98999 20.76 6.98999C20.48 6.98999 20.26 7.20999 20.26 7.48999V8.05999C19.24 8.27999 18.47 9.17999 18.47 10.25C18.47 11.32 19.24 12.22 20.26 12.44V14.9C19.79 14.71 19.47 14.27 19.47 13.75C19.47 13.47 19.25 13.25 18.97 13.25C18.69 13.25 18.47 13.47 18.47 13.75C18.47 14.82 19.24 15.72 20.26 15.94V16.51C20.26 16.79 20.48 17.01 20.76 17.01C21.04 17.01 21.26 16.79 21.26 16.51V15.94C22.28 15.72 23.05 14.82 23.05 13.75C23.05 12.68 22.28 11.78 21.26 11.56ZM20.26 9.09999V11.4C19.79 11.21 19.47 10.77 19.47 10.25C19.47 9.72999 19.8 9.28999 20.26 9.09999ZM22.05 13.75C22.05 14.27 21.72 14.71 21.26 14.9V12.6C21.73 12.79 22.05 13.23 22.05 13.75Z" fill="#FAFAFA"/>
<path d="M1.57077 31.161C1.57077 30.413 1.7431 29.742 2.08777 29.148C2.43977 28.554 2.91277 28.092 3.50677 27.762C4.1081 27.4247 4.76444 27.256 5.47577 27.256C6.28977 27.256 7.0121 27.4577 7.64277 27.861C8.28077 28.257 8.74277 28.8217 9.02877 29.555H7.52177C7.32377 29.1517 7.04877 28.851 6.69677 28.653C6.34477 28.455 5.93777 28.356 5.47577 28.356C4.96977 28.356 4.51877 28.4697 4.12277 28.697C3.72677 28.9243 3.4151 29.2507 3.18777 29.676C2.96777 30.1013 2.85777 30.5963 2.85777 31.161C2.85777 31.7257 2.96777 32.2207 3.18777 32.646C3.4151 33.0713 3.72677 33.4013 4.12277 33.636C4.51877 33.8633 4.96977 33.977 5.47577 33.977C5.93777 33.977 6.34477 33.878 6.69677 33.68C7.04877 33.482 7.32377 33.1813 7.52177 32.778H9.02877C8.74277 33.5113 8.28077 34.076 7.64277 34.472C7.0121 34.868 6.28977 35.066 5.47577 35.066C4.7571 35.066 4.10077 34.901 3.50677 34.571C2.91277 34.2337 2.43977 33.768 2.08777 33.174C1.7431 32.58 1.57077 31.909 1.57077 31.161ZM10.1336 31.942C10.1336 31.3333 10.2582 30.7943 10.5076 30.325C10.7642 29.8557 11.1089 29.4927 11.5416 29.236C11.9816 28.972 12.4656 28.84 12.9936 28.84C13.4702 28.84 13.8846 28.9353 14.2366 29.126C14.5959 29.3093 14.8819 29.5403 15.0946 29.819V28.939H16.3596V35H15.0946V34.098C14.8819 34.384 14.5922 34.6223 14.2256 34.813C13.8589 35.0037 13.4409 35.099 12.9716 35.099C12.4509 35.099 11.9742 34.967 11.5416 34.703C11.1089 34.4317 10.7642 34.0577 10.5076 33.581C10.2582 33.097 10.1336 32.5507 10.1336 31.942ZM15.0946 31.964C15.0946 31.546 15.0066 31.183 14.8306 30.875C14.6619 30.567 14.4382 30.3323 14.1596 30.171C13.8809 30.0097 13.5802 29.929 13.2576 29.929C12.9349 29.929 12.6342 30.0097 12.3556 30.171C12.0769 30.325 11.8496 30.556 11.6736 30.864C11.5049 31.1647 11.4206 31.524 11.4206 31.942C11.4206 32.36 11.5049 32.7267 11.6736 33.042C11.8496 33.3573 12.0769 33.5993 12.3556 33.768C12.6416 33.9293 12.9422 34.01 13.2576 34.01C13.5802 34.01 13.8809 33.9293 14.1596 33.768C14.4382 33.6067 14.6619 33.372 14.8306 33.064C15.0066 32.7487 15.0946 32.382 15.0946 31.964ZM20.2617 35.099C19.785 35.099 19.356 35.0147 18.9747 34.846C18.6007 34.67 18.3037 34.4353 18.0837 34.142C17.8637 33.8413 17.7463 33.5077 17.7317 33.141H19.0297C19.0517 33.3977 19.1727 33.614 19.3927 33.79C19.62 33.9587 19.9023 34.043 20.2397 34.043C20.5917 34.043 20.863 33.977 21.0537 33.845C21.2517 33.7057 21.3507 33.5297 21.3507 33.317C21.3507 33.0897 21.2407 32.921 21.0207 32.811C20.808 32.701 20.467 32.58 19.9977 32.448C19.543 32.3233 19.1727 32.2023 18.8867 32.085C18.6007 31.9677 18.3513 31.788 18.1387 31.546C17.9333 31.304 17.8307 30.985 17.8307 30.589C17.8307 30.2663 17.926 29.973 18.1167 29.709C18.3073 29.4377 18.5787 29.225 18.9307 29.071C19.29 28.917 19.7007 28.84 20.1627 28.84C20.852 28.84 21.4057 29.016 21.8237 29.368C22.249 29.7127 22.4763 30.1857 22.5057 30.787H21.2517C21.2297 30.5157 21.1197 30.2993 20.9217 30.138C20.7237 29.9767 20.456 29.896 20.1187 29.896C19.7887 29.896 19.5357 29.9583 19.3597 30.083C19.1837 30.2077 19.0957 30.3727 19.0957 30.578C19.0957 30.7393 19.1543 30.875 19.2717 30.985C19.389 31.095 19.532 31.183 19.7007 31.249C19.8693 31.3077 20.1187 31.3847 20.4487 31.48C20.8887 31.5973 21.248 31.7183 21.5267 31.843C21.8127 31.9603 22.0583 32.1363 22.2637 32.371C22.469 32.6057 22.5753 32.9173 22.5827 33.306C22.5827 33.6507 22.4873 33.9587 22.2967 34.23C22.106 34.5013 21.8347 34.714 21.4827 34.868C21.138 35.022 20.731 35.099 20.2617 35.099ZM24.6306 28.136C24.4033 28.136 24.2126 28.059 24.0586 27.905C23.9046 27.751 23.8276 27.5603 23.8276 27.333C23.8276 27.1057 23.9046 26.915 24.0586 26.761C24.2126 26.607 24.4033 26.53 24.6306 26.53C24.8506 26.53 25.0376 26.607 25.1916 26.761C25.3456 26.915 25.4226 27.1057 25.4226 27.333C25.4226 27.5603 25.3456 27.751 25.1916 27.905C25.0376 28.059 24.8506 28.136 24.6306 28.136ZM25.2466 28.939V35H23.9926V28.939H25.2466ZM30.006 28.84C30.4827 28.84 30.908 28.939 31.282 29.137C31.6634 29.335 31.9604 29.6283 32.173 30.017C32.3857 30.4057 32.492 30.875 32.492 31.425V35H31.249V31.612C31.249 31.0693 31.1134 30.655 30.842 30.369C30.5707 30.0757 30.2004 29.929 29.731 29.929C29.2617 29.929 28.8877 30.0757 28.609 30.369C28.3377 30.655 28.202 31.0693 28.202 31.612V35H26.948V28.939H28.202V29.632C28.4074 29.3827 28.6677 29.1883 28.983 29.049C29.3057 28.9097 29.6467 28.84 30.006 28.84ZM36.7756 35.099C36.2036 35.099 35.6866 34.9707 35.2246 34.714C34.7626 34.45 34.3996 34.0833 34.1356 33.614C33.8716 33.1373 33.7396 32.5873 33.7396 31.964C33.7396 31.348 33.8752 30.8017 34.1466 30.325C34.4179 29.8483 34.7882 29.4817 35.2576 29.225C35.7269 28.9683 36.2512 28.84 36.8306 28.84C37.4099 28.84 37.9342 28.9683 38.4036 29.225C38.8729 29.4817 39.2432 29.8483 39.5146 30.325C39.7859 30.8017 39.9216 31.348 39.9216 31.964C39.9216 32.58 39.7822 33.1263 39.5036 33.603C39.2249 34.0797 38.8436 34.45 38.3596 34.714C37.8829 34.9707 37.3549 35.099 36.7756 35.099ZM36.7756 34.01C37.0982 34.01 37.3989 33.933 37.6776 33.779C37.9636 33.625 38.1946 33.394 38.3706 33.086C38.5466 32.778 38.6346 32.404 38.6346 31.964C38.6346 31.524 38.5502 31.1537 38.3816 30.853C38.2129 30.545 37.9892 30.314 37.7106 30.16C37.4319 30.006 37.1312 29.929 36.8086 29.929C36.4859 29.929 36.1852 30.006 35.9066 30.16C35.6352 30.314 35.4189 30.545 35.2576 30.853C35.0962 31.1537 35.0156 31.524 35.0156 31.964C35.0156 32.6167 35.1806 33.1227 35.5106 33.482C35.8479 33.834 36.2696 34.01 36.7756 34.01Z" fill="#FAFAFA"/>
</svg>
