<svg width="41" height="39" viewBox="0 0 41 39" fill="none" xmlns="http://www.w3.org/2000/svg">
<path d="M28.31 8.84H25.42C24.71 8.84 24.08 9.18 23.68 9.71C23.4803 9.4392 23.2196 9.21929 22.919 9.06813C22.6184 8.91697 22.2865 8.83881 21.95 8.84H19.05C18.34 8.84 17.71 9.18 17.32 9.71C16.92 9.18 16.29 8.84 15.58 8.84H12.69C11.48 8.84 10.5 9.83 10.5 11.04V18.79C10.5 20 11.48 20.99 12.69 20.99H15.58C16.29 20.99 16.93 20.65 17.32 20.11C17.71 20.65 18.34 20.99 19.05 20.99H21.95C22.66 20.99 23.29 20.65 23.68 20.11C24.07 20.65 24.71 20.99 25.42 20.99H28.31C29.52 20.99 30.5 20 30.5 18.79V11.04C30.5 9.83 29.52 8.84 28.31 8.84ZM16.87 18.79C16.87 19.51 16.29 20.08 15.58 20.08H12.69C11.98 20.08 11.4 19.5 11.4 18.79V11.04C11.4 10.32 11.98 9.75 12.69 9.75H15.58C16.29 9.75 16.87 10.33 16.87 11.04V18.79ZM21.95 20.08H19.05C18.34 20.08 17.77 19.5 17.77 18.79V11.04C17.77 10.32 18.34 9.75 19.05 9.75H21.95C22.66 9.75 23.23 10.33 23.23 11.04V18.79C23.23 19.51 22.66 20.08 21.95 20.08ZM29.6 18.79C29.6 19.51 29.02 20.08 28.31 20.08H25.42C24.71 20.08 24.13 19.5 24.13 18.79V11.04C24.13 10.32 24.71 9.75 25.42 9.75H28.31C29.02 9.75 29.6 10.33 29.6 11.04V18.79ZM22.09 7.82L20.5 7.32L18.91 7.82V6.18L17.92 4.84L19.52 4.32L20.5 3L21.48 4.32L23.08 4.84L22.1 6.18V7.82H22.09ZM20.5 6.6L21.41 6.89V5.95L21.96 5.2L21.06 4.91L20.49 4.15L19.92 4.91L19.02 5.2L19.57 5.95V6.89L20.48 6.6H20.5ZM25.65 8.12V6.86L24.89 5.83L26.12 5.43L26.87 4.42L27.62 5.43L28.85 5.83L28.09 6.86V8.12L26.86 7.73L25.64 8.12H25.65ZM26.87 7.02L27.41 7.19V6.63L27.74 6.19L27.21 6.02L26.87 5.56L26.53 6.02L26 6.19L26.33 6.63V7.19L26.87 7.02ZM15.35 8.12L14.13 7.73L12.91 8.12V6.86L12.15 5.83L13.38 5.43L14.13 4.42L14.88 5.43L16.11 5.83L15.35 6.86V8.12ZM13.25 6.19L13.58 6.63V7.19L14.13 7.02L14.67 7.19V6.63L15 6.19L14.47 6.02L14.13 5.56L13.79 6.02L13.26 6.19H13.25Z" fill="#A8A8A8"/>
<path d="M13.7301 17.45C13.4801 17.45 13.2801 17.25 13.2801 17C13.2801 15.37 14.3001 14.03 14.8601 13.42H13.1801V13.98C13.1801 14.23 12.9801 14.43 12.7301 14.43C12.4801 14.43 12.2801 14.23 12.2801 13.98V12.81C12.2801 12.64 12.4101 12.51 12.5801 12.51H15.2501C15.5101 12.51 15.7501 12.64 15.8901 12.87C16.0301 13.09 16.0401 13.37 15.9201 13.61L15.8201 13.75C15.8201 13.75 14.1901 15.23 14.1901 17.01C14.1901 17.26 13.9901 17.46 13.7401 17.46L13.7301 17.45ZM20.0901 17.45C19.8401 17.45 19.6401 17.25 19.6401 17C19.6401 15.37 20.6601 14.03 21.2201 13.42H19.5401V13.98C19.5401 14.23 19.3401 14.43 19.0901 14.43C18.8401 14.43 18.6401 14.23 18.6401 13.98V12.81C18.6401 12.64 18.7701 12.51 18.9401 12.51H21.6101C21.8701 12.51 22.1101 12.64 22.2501 12.87C22.3901 13.09 22.4001 13.37 22.2801 13.61L22.1801 13.75C22.1801 13.75 20.5501 15.23 20.5501 17.01C20.5501 17.26 20.3501 17.46 20.1001 17.46L20.0901 17.45ZM26.4601 17.45C26.2101 17.45 26.0101 17.25 26.0101 17C26.0101 15.37 27.0301 14.03 27.5901 13.42H25.9101V13.98C25.9101 14.23 25.7101 14.43 25.4601 14.43C25.2101 14.43 25.0101 14.23 25.0101 13.98V12.81C25.0101 12.64 25.1401 12.51 25.3101 12.51H27.9801C28.2401 12.51 28.4801 12.64 28.6201 12.87C28.7601 13.09 28.7701 13.37 28.6501 13.61L28.5501 13.75C28.5501 13.75 26.9201 15.23 26.9201 17.01C26.9201 17.26 26.7201 17.46 26.4701 17.46L26.4601 17.45ZM15.7201 19.52H12.5401C12.2901 19.52 12.0901 19.32 12.0901 19.07C12.0901 18.82 12.2901 18.62 12.5401 18.62H15.7201C15.9701 18.62 16.1701 18.82 16.1701 19.07C16.1701 19.32 15.9701 19.52 15.7201 19.52ZM22.0901 19.52H18.9101C18.6601 19.52 18.4601 19.32 18.4601 19.07C18.4601 18.82 18.6601 18.62 18.9101 18.62H22.0901C22.3401 18.62 22.5401 18.82 22.5401 19.07C22.5401 19.32 22.3401 19.52 22.0901 19.52ZM28.4601 19.52H25.2801C25.0301 19.52 24.8301 19.32 24.8301 19.07C24.8301 18.82 25.0301 18.62 25.2801 18.62H28.4601C28.7101 18.62 28.9101 18.82 28.9101 19.07C28.9101 19.32 28.7101 19.52 28.4601 19.52Z" fill="#A8A8A8"/>
<path d="M10.4728 35.077C9.95944 35.077 9.49744 34.989 9.08677 34.813C8.6761 34.6297 8.35344 34.373 8.11877 34.043C7.8841 33.713 7.76677 33.328 7.76677 32.888H9.10877C9.1381 33.218 9.26644 33.4893 9.49377 33.702C9.72844 33.9147 10.0548 34.021 10.4728 34.021C10.9054 34.021 11.2428 33.9183 11.4848 33.713C11.7268 33.5003 11.8478 33.229 11.8478 32.899C11.8478 32.6423 11.7708 32.4333 11.6168 32.272C11.4701 32.1107 11.2831 31.986 11.0558 31.898C10.8358 31.81 10.5278 31.7147 10.1318 31.612C9.6331 31.48 9.2261 31.348 8.91077 31.216C8.60277 31.0767 8.33877 30.864 8.11877 30.578C7.89877 30.292 7.78877 29.9107 7.78877 29.434C7.78877 28.994 7.89877 28.609 8.11877 28.279C8.33877 27.949 8.64677 27.696 9.04277 27.52C9.43877 27.344 9.8971 27.256 10.4178 27.256C11.1584 27.256 11.7634 27.443 12.2328 27.817C12.7094 28.1837 12.9734 28.6897 13.0248 29.335H11.6388C11.6168 29.0563 11.4848 28.818 11.2428 28.62C11.0008 28.422 10.6818 28.323 10.2858 28.323C9.92644 28.323 9.6331 28.4147 9.40577 28.598C9.17844 28.7813 9.06477 29.0453 9.06477 29.39C9.06477 29.6247 9.13444 29.819 9.27377 29.973C9.42044 30.1197 9.60377 30.237 9.82377 30.325C10.0438 30.413 10.3444 30.5083 10.7258 30.611C11.2318 30.7503 11.6424 30.8897 11.9578 31.029C12.2804 31.1683 12.5518 31.3847 12.7718 31.678C12.9991 31.964 13.1128 32.349 13.1128 32.833C13.1128 33.2217 13.0064 33.5883 12.7938 33.933C12.5884 34.2777 12.2841 34.5563 11.8808 34.769C11.4848 34.9743 11.0154 35.077 10.4728 35.077ZM15.9014 26.86V35H14.6474V26.86H15.9014ZM20.2318 35.099C19.6598 35.099 19.1428 34.9707 18.6808 34.714C18.2188 34.45 17.8558 34.0833 17.5918 33.614C17.3278 33.1373 17.1958 32.5873 17.1958 31.964C17.1958 31.348 17.3315 30.8017 17.6028 30.325C17.8742 29.8483 18.2445 29.4817 18.7138 29.225C19.1832 28.9683 19.7075 28.84 20.2868 28.84C20.8662 28.84 21.3905 28.9683 21.8598 29.225C22.3292 29.4817 22.6995 29.8483 22.9708 30.325C23.2422 30.8017 23.3778 31.348 23.3778 31.964C23.3778 32.58 23.2385 33.1263 22.9598 33.603C22.6812 34.0797 22.2998 34.45 21.8158 34.714C21.3392 34.9707 20.8112 35.099 20.2318 35.099ZM20.2318 34.01C20.5545 34.01 20.8552 33.933 21.1338 33.779C21.4198 33.625 21.6508 33.394 21.8268 33.086C22.0028 32.778 22.0908 32.404 22.0908 31.964C22.0908 31.524 22.0065 31.1537 21.8378 30.853C21.6692 30.545 21.4455 30.314 21.1668 30.16C20.8882 30.006 20.5875 29.929 20.2648 29.929C19.9422 29.929 19.6415 30.006 19.3628 30.16C19.0915 30.314 18.8752 30.545 18.7138 30.853C18.5525 31.1537 18.4718 31.524 18.4718 31.964C18.4718 32.6167 18.6368 33.1227 18.9668 33.482C19.3042 33.834 19.7258 34.01 20.2318 34.01ZM26.1355 29.962V33.317C26.1355 33.5443 26.1868 33.7093 26.2895 33.812C26.3995 33.9073 26.5828 33.955 26.8395 33.955H27.6095V35H26.6195C26.0548 35 25.6221 34.868 25.3215 34.604C25.0208 34.34 24.8705 33.911 24.8705 33.317V29.962H24.1555V28.939H24.8705V27.432H26.1355V28.939H27.6095V29.962H26.1355ZM31.0203 35.099C30.5436 35.099 30.1146 35.0147 29.7333 34.846C29.3593 34.67 29.0623 34.4353 28.8423 34.142C28.6223 33.8413 28.5049 33.5077 28.4903 33.141H29.7883C29.8103 33.3977 29.9313 33.614 30.1513 33.79C30.3786 33.9587 30.6609 34.043 30.9983 34.043C31.3503 34.043 31.6216 33.977 31.8123 33.845C32.0103 33.7057 32.1093 33.5297 32.1093 33.317C32.1093 33.0897 31.9993 32.921 31.7793 32.811C31.5666 32.701 31.2256 32.58 30.7563 32.448C30.3016 32.3233 29.9313 32.2023 29.6453 32.085C29.3593 31.9677 29.1099 31.788 28.8973 31.546C28.6919 31.304 28.5893 30.985 28.5893 30.589C28.5893 30.2663 28.6846 29.973 28.8753 29.709C29.0659 29.4377 29.3373 29.225 29.6893 29.071C30.0486 28.917 30.4593 28.84 30.9213 28.84C31.6106 28.84 32.1643 29.016 32.5823 29.368C33.0076 29.7127 33.2349 30.1857 33.2643 30.787H32.0103C31.9883 30.5157 31.8783 30.2993 31.6803 30.138C31.4823 29.9767 31.2146 29.896 30.8773 29.896C30.5473 29.896 30.2943 29.9583 30.1183 30.083C29.9423 30.2077 29.8543 30.3727 29.8543 30.578C29.8543 30.7393 29.9129 30.875 30.0303 30.985C30.1476 31.095 30.2906 31.183 30.4593 31.249C30.6279 31.3077 30.8773 31.3847 31.2073 31.48C31.6473 31.5973 32.0066 31.7183 32.2853 31.843C32.5713 31.9603 32.8169 32.1363 33.0223 32.371C33.2276 32.6057 33.3339 32.9173 33.3413 33.306C33.3413 33.6507 33.2459 33.9587 33.0553 34.23C32.8646 34.5013 32.5933 34.714 32.2413 34.868C31.8966 35.022 31.4896 35.099 31.0203 35.099Z" fill="#A8A8A8"/>
</svg>
