<svg width="6" height="10" viewBox="0 0 6 10" fill="none" xmlns="http://www.w3.org/2000/svg">
<path d="M3.50997 4.55999V2.09999C3.97997 2.28999 4.29997 2.72999 4.29997 3.24999C4.29997 3.52999 4.51997 3.74999 4.79997 3.74999C5.07997 3.74999 5.29997 3.52999 5.29997 3.24999C5.29997 2.17999 4.52997 1.27999 3.50997 1.05999V0.48999C3.50997 0.20999 3.28997 -0.0100098 3.00997 -0.0100098C2.72997 -0.0100098 2.50997 0.20999 2.50997 0.48999V1.05999C1.48997 1.27999 0.719971 2.17999 0.719971 3.24999C0.719971 4.31999 1.48997 5.21999 2.50997 5.43999V7.89999C2.03997 7.70999 1.71997 7.26999 1.71997 6.74999C1.71997 6.46999 1.49997 6.24999 1.21997 6.24999C0.939971 6.24999 0.719971 6.46999 0.719971 6.74999C0.719971 7.81999 1.48997 8.71999 2.50997 8.93999V9.50999C2.50997 9.78999 2.72997 10.01 3.00997 10.01C3.28997 10.01 3.50997 9.78999 3.50997 9.50999V8.93999C4.52997 8.71999 5.29997 7.81999 5.29997 6.74999C5.29997 5.67999 4.52997 4.77999 3.50997 4.55999ZM2.50997 2.09999V4.39999C2.03997 4.20999 1.71997 3.76999 1.71997 3.24999C1.71997 2.72999 2.04997 2.28999 2.50997 2.09999ZM4.29997 6.74999C4.29997 7.26999 3.96997 7.70999 3.50997 7.89999V5.59999C3.97997 5.78999 4.29997 6.22999 4.29997 6.74999Z" fill="#E1E1E1"/>
</svg>
