<svg width="16" height="20" viewBox="0 0 16 20" fill="none" xmlns="http://www.w3.org/2000/svg">
<path d="M8.5383 2.29449C8.8615 2.05075 9.182 1.86356 9.4688 1.73169C9.5555 3.85881 10.5955 5.45829 11.5965 6.87109C11.6881 7.00031 11.779 7.12767 11.8688 7.25354C12.9522 8.7721 13.8801 10.0725 13.9813 11.794C14.0979 13.7759 13.6036 15.4514 12.6453 16.6176C11.6986 17.7696 10.2385 18.5 8.25 18.5C6.1887 18.5 4.6396 17.9712 3.55849 17.0843C2.48244 16.2015 1.79472 14.9026 1.56502 13.2123C1.33902 11.5492 1.74149 10.3672 2.17625 9.6092C2.26176 9.4601 2.34906 9.3266 2.43394 9.2084L2.74894 9.8066C3.29998 10.8532 4.57839 11.2789 5.64684 10.7716C6.9525 10.1516 7.2311 8.5595 6.8165 7.4416C6.5264 6.65954 6.3721 5.70456 6.7077 4.74841C7.084 3.67629 7.7985 2.85253 8.5383 2.29449ZM2.15636 7.3231L2.15395 7.32491L2.15 7.3279L2.13963 7.33586C2.13164 7.34204 2.12151 7.34999 2.10942 7.35973C2.08524 7.37919 2.05314 7.40581 2.01442 7.43966C1.93703 7.50732 1.83284 7.6042 1.71236 7.73104C1.47171 7.98437 1.16368 8.3598 0.8751 8.8629C0.29291 9.8779 -0.19632 11.3906 0.0786801 13.4142C0.34997 15.4107 1.18833 17.0801 2.60711 18.244C4.02084 19.4038 5.93533 20 8.25 20C10.6375 20 12.5425 19.1054 13.8042 17.5699C15.0544 16.0486 15.6122 13.9741 15.4787 11.706C15.3508 9.5302 14.1656 7.87945 13.1188 6.42123C13.0177 6.28043 12.9179 6.14142 12.8205 6.00391C11.6785 4.39222 10.7768 2.90657 10.9959 0.82863C11.0182 0.61721 10.9497 0.40625 10.8075 0.24824C10.6652 0.09023 10.4626 0 10.25 0C9.868 0 9.4309 0.11822 9.0077 0.29599C8.5715 0.47923 8.0984 0.74751 7.6351 1.09694C6.7104 1.79438 5.78589 2.84563 5.29236 4.25159C4.80006 5.65408 5.04947 6.99089 5.41008 7.9632C5.64689 8.6017 5.39005 9.233 5.00347 9.4165C4.66159 9.5789 4.25252 9.4427 4.07619 9.1078L3.26887 7.57452C3.16673 7.38052 2.98481 7.24093 2.77099 7.19248C2.55717 7.14403 2.33215 7.19209 2.15636 7.3231Z" fill="#E1E1E1"/>
</svg>
