<svg width="390" height="128" viewBox="0 0 390 128" fill="none" xmlns="http://www.w3.org/2000/svg">
<rect width="390" height="128" fill="#1D1D1D"/>
<path d="M20.601 37.856L20.447 40.642H19.565L19.397 37.856H20.601ZM22.491 37.856L22.337 40.642H21.455L21.287 37.856H22.491ZM31.4999 42.07C31.2292 41.5007 30.8372 41.062 30.3239 40.754C29.8105 40.4367 29.2132 40.278 28.5319 40.278C27.8505 40.278 27.2345 40.4367 26.6839 40.754C26.1425 41.062 25.7132 41.51 25.3959 42.098C25.0879 42.6767 24.9339 43.3487 24.9339 44.114C24.9339 44.8793 25.0879 45.5513 25.3959 46.13C25.7132 46.7087 26.1425 47.1567 26.6839 47.474C27.2345 47.782 27.8505 47.936 28.5319 47.936C29.4839 47.936 30.2679 47.6513 30.8839 47.082C31.4999 46.5127 31.8592 45.7427 31.9619 44.772H28.0699V43.736H33.3199V44.716C33.2452 45.5187 32.9932 46.256 32.5639 46.928C32.1345 47.5907 31.5699 48.118 30.8699 48.51C30.1699 48.8927 29.3905 49.084 28.5319 49.084C27.6265 49.084 26.8005 48.874 26.0539 48.454C25.3072 48.0247 24.7145 47.432 24.2759 46.676C23.8465 45.92 23.6319 45.066 23.6319 44.114C23.6319 43.162 23.8465 42.308 24.2759 41.552C24.7145 40.7867 25.3072 40.194 26.0539 39.774C26.8005 39.3447 27.6265 39.13 28.5319 39.13C29.5679 39.13 30.4825 39.3867 31.2759 39.9C32.0785 40.4133 32.6619 41.1367 33.0259 42.07H31.4999ZM40.8074 46.83H36.5514L35.7674 49H34.4234L37.9514 39.298H39.4214L42.9354 49H41.5914L40.8074 46.83ZM40.4434 45.794L38.6794 40.866L36.9154 45.794H40.4434ZM54.406 39.312V49H53.132V41.776L49.912 49H49.016L45.782 41.762V49H44.508V39.312H45.88L49.464 47.32L53.048 39.312H54.406ZM61.4875 43.974C61.8422 44.03 62.1642 44.1747 62.4535 44.408C62.7522 44.6413 62.9855 44.9307 63.1535 45.276C63.3309 45.6213 63.4195 45.99 63.4195 46.382C63.4195 46.8767 63.2935 47.3247 63.0415 47.726C62.7895 48.118 62.4209 48.4307 61.9355 48.664C61.4595 48.888 60.8949 49 60.2415 49H56.6015V39.242H60.1015C60.7642 39.242 61.3289 39.354 61.7955 39.578C62.2622 39.7927 62.6122 40.0867 62.8455 40.46C63.0789 40.8333 63.1955 41.2533 63.1955 41.72C63.1955 42.2987 63.0369 42.7793 62.7195 43.162C62.4115 43.5353 62.0009 43.806 61.4875 43.974ZM57.8755 43.456H60.0175C60.6149 43.456 61.0769 43.316 61.4035 43.036C61.7302 42.756 61.8935 42.3687 61.8935 41.874C61.8935 41.3793 61.7302 40.992 61.4035 40.712C61.0769 40.432 60.6055 40.292 59.9895 40.292H57.8755V43.456ZM60.1295 47.95C60.7642 47.95 61.2589 47.8007 61.6135 47.502C61.9682 47.2033 62.1455 46.788 62.1455 46.256C62.1455 45.7147 61.9589 45.29 61.5855 44.982C61.2122 44.6647 60.7129 44.506 60.0875 44.506H57.8755V47.95H60.1295ZM66.4965 47.964H69.9125V49H65.2225V39.242H66.4965V47.964ZM72.5745 39.242V49H71.3005V39.242H72.5745ZM82.4528 49H81.1788L76.0548 41.23V49H74.7808V39.228H76.0548L81.1788 46.984V39.228H82.4528V49ZM92.0515 42.07C91.7808 41.5007 91.3888 41.062 90.8755 40.754C90.3622 40.4367 89.7648 40.278 89.0835 40.278C88.4022 40.278 87.7862 40.4367 87.2355 40.754C86.6942 41.062 86.2648 41.51 85.9475 42.098C85.6395 42.6767 85.4855 43.3487 85.4855 44.114C85.4855 44.8793 85.6395 45.5513 85.9475 46.13C86.2648 46.7087 86.6942 47.1567 87.2355 47.474C87.7862 47.782 88.4022 47.936 89.0835 47.936C90.0355 47.936 90.8195 47.6513 91.4355 47.082C92.0515 46.5127 92.4108 45.7427 92.5135 44.772H88.6215V43.736H93.8715V44.716C93.7968 45.5187 93.5448 46.256 93.1155 46.928C92.6862 47.5907 92.1215 48.118 91.4215 48.51C90.7215 48.8927 89.9422 49.084 89.0835 49.084C88.1782 49.084 87.3522 48.874 86.6055 48.454C85.8588 48.0247 85.2662 47.432 84.8275 46.676C84.3982 45.92 84.1835 45.066 84.1835 44.114C84.1835 43.162 84.3982 42.308 84.8275 41.552C85.2662 40.7867 85.8588 40.194 86.6055 39.774C87.3522 39.3447 88.1782 39.13 89.0835 39.13C90.1195 39.13 91.0342 39.3867 91.8275 39.9C92.6302 40.4133 93.2135 41.1367 93.5775 42.07H92.0515ZM98.8824 44.114C98.8824 43.162 99.0971 42.308 99.5264 41.552C99.9558 40.7867 100.539 40.1893 101.276 39.76C102.023 39.3307 102.849 39.116 103.754 39.116C104.818 39.116 105.747 39.3727 106.54 39.886C107.334 40.3993 107.912 41.1273 108.276 42.07H106.75C106.48 41.482 106.088 41.0293 105.574 40.712C105.07 40.3947 104.464 40.236 103.754 40.236C103.073 40.236 102.462 40.3947 101.92 40.712C101.379 41.0293 100.954 41.482 100.646 42.07C100.338 42.6487 100.184 43.33 100.184 44.114C100.184 44.8887 100.338 45.57 100.646 46.158C100.954 46.7367 101.379 47.1847 101.92 47.502C102.462 47.8193 103.073 47.978 103.754 47.978C104.464 47.978 105.07 47.824 105.574 47.516C106.088 47.1987 106.48 46.746 106.75 46.158H108.276C107.912 47.0913 107.334 47.8147 106.54 48.328C105.747 48.832 104.818 49.084 103.754 49.084C102.849 49.084 102.023 48.874 101.276 48.454C100.539 48.0247 99.9558 47.432 99.5264 46.676C99.0971 45.92 98.8824 45.066 98.8824 44.114ZM115.976 46.83H111.72L110.936 49H109.592L113.12 39.298H114.59L118.104 49H116.76L115.976 46.83ZM115.612 45.794L113.848 40.866L112.084 45.794H115.612ZM127.348 49H126.074L120.95 41.23V49H119.676V39.228H120.95L126.074 46.984V39.228H127.348V49ZM138.209 43.974C138.563 44.03 138.885 44.1747 139.175 44.408C139.473 44.6413 139.707 44.9307 139.875 45.276C140.052 45.6213 140.141 45.99 140.141 46.382C140.141 46.8767 140.015 47.3247 139.763 47.726C139.511 48.118 139.142 48.4307 138.657 48.664C138.181 48.888 137.616 49 136.963 49H133.323V39.242H136.823C137.485 39.242 138.05 39.354 138.517 39.578C138.983 39.7927 139.333 40.0867 139.567 40.46C139.8 40.8333 139.917 41.2533 139.917 41.72C139.917 42.2987 139.758 42.7793 139.441 43.162C139.133 43.5353 138.722 43.806 138.209 43.974ZM134.597 43.456H136.739C137.336 43.456 137.798 43.316 138.125 43.036C138.451 42.756 138.615 42.3687 138.615 41.874C138.615 41.3793 138.451 40.992 138.125 40.712C137.798 40.432 137.327 40.292 136.711 40.292H134.597V43.456ZM136.851 47.95C137.485 47.95 137.98 47.8007 138.335 47.502C138.689 47.2033 138.867 46.788 138.867 46.256C138.867 45.7147 138.68 45.29 138.307 44.982C137.933 44.6647 137.434 44.506 136.809 44.506H134.597V47.95H136.851ZM143.218 40.278V43.54H146.774V44.59H143.218V47.95H147.194V49H141.944V39.228H147.194V40.278H143.218ZM25.753 66.83H21.497L20.713 69H19.369L22.897 59.298H24.367L27.881 69H26.537L25.753 66.83ZM25.389 65.794L23.625 60.866L21.861 65.794H25.389ZM32.4916 59.242C33.5556 59.242 34.4749 59.4427 35.2496 59.844C36.0336 60.236 36.6309 60.8007 37.0416 61.538C37.4616 62.2753 37.6716 63.1433 37.6716 64.142C37.6716 65.1407 37.4616 66.0087 37.0416 66.746C36.6309 67.474 36.0336 68.034 35.2496 68.426C34.4749 68.8087 33.5556 69 32.4916 69H29.4536V59.242H32.4916ZM32.4916 67.95C33.7516 67.95 34.7129 67.6187 35.3756 66.956C36.0382 66.284 36.3696 65.346 36.3696 64.142C36.3696 62.9287 36.0336 61.9813 35.3616 61.3C34.6989 60.6187 33.7422 60.278 32.4916 60.278H30.7276V67.95H32.4916ZM42.425 59.242C43.489 59.242 44.4083 59.4427 45.183 59.844C45.967 60.236 46.5643 60.8007 46.975 61.538C47.395 62.2753 47.605 63.1433 47.605 64.142C47.605 65.1407 47.395 66.0087 46.975 66.746C46.5643 67.474 45.967 68.034 45.183 68.426C44.4083 68.8087 43.489 69 42.425 69H39.387V59.242H42.425ZM42.425 67.95C43.685 67.95 44.6463 67.6187 45.309 66.956C45.9717 66.284 46.303 65.346 46.303 64.142C46.303 62.9287 45.967 61.9813 45.295 61.3C44.6323 60.6187 43.6757 60.278 42.425 60.278H40.661V67.95H42.425ZM50.5945 59.242V69H49.3205V59.242H50.5945ZM52.3248 64.114C52.3248 63.162 52.5394 62.308 52.9688 61.552C53.3981 60.7867 53.9814 60.1893 54.7188 59.76C55.4654 59.3307 56.2914 59.116 57.1968 59.116C58.2608 59.116 59.1894 59.3727 59.9828 59.886C60.7761 60.3993 61.3548 61.1273 61.7188 62.07H60.1928C59.9221 61.482 59.5301 61.0293 59.0168 60.712C58.5128 60.3947 57.9061 60.236 57.1968 60.236C56.5154 60.236 55.9041 60.3947 55.3628 60.712C54.8214 61.0293 54.3968 61.482 54.0888 62.07C53.7808 62.6487 53.6268 63.33 53.6268 64.114C53.6268 64.8887 53.7808 65.57 54.0888 66.158C54.3968 66.7367 54.8214 67.1847 55.3628 67.502C55.9041 67.8193 56.5154 67.978 57.1968 67.978C57.9061 67.978 58.5128 67.824 59.0168 67.516C59.5301 67.1987 59.9221 66.746 60.1928 66.158H61.7188C61.3548 67.0913 60.7761 67.8147 59.9828 68.328C59.1894 68.832 58.2608 69.084 57.1968 69.084C56.2914 69.084 55.4654 68.874 54.7188 68.454C53.9814 68.0247 53.3981 67.432 52.9688 66.676C52.5394 65.92 52.3248 65.066 52.3248 64.114ZM69.6562 59.242V60.278H66.9962V69H65.7222V60.278H63.0482V59.242H69.6562ZM72.5334 59.242V69H71.2594V59.242H72.5334ZM82.8037 59.242L79.1217 69H77.6517L73.9697 59.242H75.3277L78.3937 67.656L81.4597 59.242H82.8037ZM85.5097 60.278V63.54H89.0657V64.59H85.5097V67.95H89.4857V69H84.2357V59.228H89.4857V60.278H85.5097ZM92.7644 67.236L91.1964 71.002H90.3424L91.3644 67.236H92.7644ZM104.55 62.098C104.55 62.91 104.27 63.5867 103.71 64.128C103.16 64.66 102.315 64.926 101.176 64.926H99.3002V69H98.0262V59.242H101.176C102.278 59.242 103.113 59.508 103.682 60.04C104.261 60.572 104.55 61.258 104.55 62.098ZM101.176 63.876C101.886 63.876 102.408 63.722 102.744 63.414C103.08 63.106 103.248 62.6673 103.248 62.098C103.248 60.894 102.558 60.292 101.176 60.292H99.3002V63.876H101.176ZM107.443 67.964H110.859V69H106.169V59.242H107.443V67.964ZM113.521 60.278V63.54H117.077V64.59H113.521V67.95H117.497V69H112.247V59.228H117.497V60.278H113.521ZM125.227 66.83H120.971L120.187 69H118.843L122.371 59.298H123.841L127.355 69H126.011L125.227 66.83ZM124.863 65.794L123.099 60.866L121.335 65.794H124.863ZM132.022 69.098C131.378 69.098 130.799 68.986 130.286 68.762C129.782 68.5287 129.385 68.2113 129.096 67.81C128.807 67.3993 128.657 66.928 128.648 66.396H130.006C130.053 66.8533 130.239 67.2407 130.566 67.558C130.902 67.866 131.387 68.02 132.022 68.02C132.629 68.02 133.105 67.8707 133.45 67.572C133.805 67.264 133.982 66.872 133.982 66.396C133.982 66.0227 133.879 65.7193 133.674 65.486C133.469 65.2527 133.212 65.0753 132.904 64.954C132.596 64.8327 132.181 64.702 131.658 64.562C131.014 64.394 130.496 64.226 130.104 64.058C129.721 63.89 129.39 63.6287 129.11 63.274C128.839 62.91 128.704 62.4247 128.704 61.818C128.704 61.286 128.839 60.8147 129.11 60.404C129.381 59.9933 129.759 59.676 130.244 59.452C130.739 59.228 131.303 59.116 131.938 59.116C132.853 59.116 133.599 59.3447 134.178 59.802C134.766 60.2593 135.097 60.866 135.172 61.622H133.772C133.725 61.2487 133.529 60.922 133.184 60.642C132.839 60.3527 132.381 60.208 131.812 60.208C131.28 60.208 130.846 60.348 130.51 60.628C130.174 60.8987 130.006 61.2813 130.006 61.776C130.006 62.1307 130.104 62.42 130.3 62.644C130.505 62.868 130.753 63.0407 131.042 63.162C131.341 63.274 131.756 63.4047 132.288 63.554C132.932 63.7313 133.45 63.9087 133.842 64.086C134.234 64.254 134.57 64.52 134.85 64.884C135.13 65.2387 135.27 65.724 135.27 66.34C135.27 66.816 135.144 67.264 134.892 67.684C134.64 68.104 134.267 68.4447 133.772 68.706C133.277 68.9673 132.694 69.098 132.022 69.098ZM138.454 60.278V63.54H142.01V64.59H138.454V67.95H142.43V69H137.18V59.228H142.43V60.278H138.454ZM154.684 62.098C154.684 62.91 154.404 63.5867 153.844 64.128C153.293 64.66 152.449 64.926 151.31 64.926H149.434V69H148.16V59.242H151.31C152.411 59.242 153.247 59.508 153.816 60.04C154.395 60.572 154.684 61.258 154.684 62.098ZM151.31 63.876C152.019 63.876 152.542 63.722 152.878 63.414C153.214 63.106 153.382 62.6673 153.382 62.098C153.382 60.894 152.691 60.292 151.31 60.292H149.434V63.876H151.31ZM157.576 67.964H160.992V69H156.302V59.242H157.576V67.964ZM168.148 66.83H163.892L163.108 69H161.764L165.292 59.298H166.762L170.276 69H168.932L168.148 66.83ZM167.784 65.794L166.02 60.866L164.256 65.794H167.784ZM178.681 59.242L175.503 65.318V69H174.229V65.318L171.037 59.242H172.451L174.859 64.184L177.267 59.242H178.681ZM25.123 89L22.799 85.01H21.259V89H19.985V79.242H23.135C23.8723 79.242 24.493 79.368 24.997 79.62C25.5103 79.872 25.893 80.2127 26.145 80.642C26.397 81.0713 26.523 81.5613 26.523 82.112C26.523 82.784 26.327 83.3767 25.935 83.89C25.5523 84.4033 24.9736 84.744 24.199 84.912L26.649 89H25.123ZM21.259 83.988H23.135C23.8256 83.988 24.3436 83.82 24.689 83.484C25.0343 83.1387 25.207 82.6813 25.207 82.112C25.207 81.5333 25.0343 81.0853 24.689 80.768C24.353 80.4507 23.835 80.292 23.135 80.292H21.259V83.988ZM29.8116 80.278V83.54H33.3676V84.59H29.8116V87.95H33.7876V89H28.5376V79.228H33.7876V80.278H29.8116ZM38.8443 89.098C38.2003 89.098 37.6216 88.986 37.1083 88.762C36.6043 88.5287 36.2076 88.2113 35.9183 87.81C35.629 87.3993 35.4796 86.928 35.4703 86.396H36.8283C36.875 86.8533 37.0616 87.2407 37.3883 87.558C37.7243 87.866 38.2096 88.02 38.8443 88.02C39.451 88.02 39.927 87.8707 40.2723 87.572C40.627 87.264 40.8043 86.872 40.8043 86.396C40.8043 86.0227 40.7016 85.7193 40.4963 85.486C40.291 85.2527 40.0343 85.0753 39.7263 84.954C39.4183 84.8327 39.003 84.702 38.4803 84.562C37.8363 84.394 37.3183 84.226 36.9263 84.058C36.5436 83.89 36.2123 83.6287 35.9323 83.274C35.6616 82.91 35.5263 82.4247 35.5263 81.818C35.5263 81.286 35.6616 80.8147 35.9323 80.404C36.203 79.9933 36.581 79.676 37.0663 79.452C37.561 79.228 38.1256 79.116 38.7603 79.116C39.675 79.116 40.4216 79.3447 41.0003 79.802C41.5883 80.2593 41.9196 80.866 41.9943 81.622H40.5943C40.5476 81.2487 40.3516 80.922 40.0063 80.642C39.661 80.3527 39.2036 80.208 38.6343 80.208C38.1023 80.208 37.6683 80.348 37.3323 80.628C36.9963 80.8987 36.8283 81.2813 36.8283 81.776C36.8283 82.1307 36.9263 82.42 37.1223 82.644C37.3276 82.868 37.575 83.0407 37.8643 83.162C38.163 83.274 38.5783 83.4047 39.1103 83.554C39.7543 83.7313 40.2723 83.9087 40.6643 84.086C41.0563 84.254 41.3923 84.52 41.6723 84.884C41.9523 85.2387 42.0923 85.724 42.0923 86.34C42.0923 86.816 41.9663 87.264 41.7143 87.684C41.4623 88.104 41.089 88.4447 40.5943 88.706C40.0996 88.9673 39.5163 89.098 38.8443 89.098ZM50.5261 82.098C50.5261 82.91 50.2461 83.5867 49.6861 84.128C49.1354 84.66 48.2908 84.926 47.1521 84.926H45.2761V89H44.0021V79.242H47.1521C48.2534 79.242 49.0888 79.508 49.6581 80.04C50.2368 80.572 50.5261 81.258 50.5261 82.098ZM47.1521 83.876C47.8614 83.876 48.3841 83.722 48.7201 83.414C49.0561 83.106 49.2241 82.6673 49.2241 82.098C49.2241 80.894 48.5334 80.292 47.1521 80.292H45.2761V83.876H47.1521ZM56.5685 89.098C55.6632 89.098 54.8372 88.888 54.0905 88.468C53.3438 88.0387 52.7512 87.446 52.3125 86.69C51.8832 85.9247 51.6685 85.066 51.6685 84.114C51.6685 83.162 51.8832 82.308 52.3125 81.552C52.7512 80.7867 53.3438 80.194 54.0905 79.774C54.8372 79.3447 55.6632 79.13 56.5685 79.13C57.4832 79.13 58.3138 79.3447 59.0605 79.774C59.8072 80.194 60.3952 80.782 60.8245 81.538C61.2538 82.294 61.4685 83.1527 61.4685 84.114C61.4685 85.0753 61.2538 85.934 60.8245 86.69C60.3952 87.446 59.8072 88.0387 59.0605 88.468C58.3138 88.888 57.4832 89.098 56.5685 89.098ZM56.5685 87.992C57.2498 87.992 57.8612 87.8333 58.4025 87.516C58.9532 87.1987 59.3825 86.746 59.6905 86.158C60.0078 85.57 60.1665 84.8887 60.1665 84.114C60.1665 83.33 60.0078 82.6487 59.6905 82.07C59.3825 81.482 58.9578 81.0293 58.4165 80.712C57.8752 80.3947 57.2592 80.236 56.5685 80.236C55.8778 80.236 55.2618 80.3947 54.7205 80.712C54.1792 81.0293 53.7498 81.482 53.4325 82.07C53.1245 82.6487 52.9705 83.33 52.9705 84.114C52.9705 84.8887 53.1245 85.57 53.4325 86.158C53.7498 86.746 54.1792 87.1987 54.7205 87.516C55.2712 87.8333 55.8872 87.992 56.5685 87.992ZM70.8574 89H69.5834L64.4594 81.23V89H63.1854V79.228H64.4594L69.5834 86.984V79.228H70.8574V89ZM76.1581 89.098C75.5141 89.098 74.9355 88.986 74.4221 88.762C73.9181 88.5287 73.5215 88.2113 73.2321 87.81C72.9428 87.3993 72.7935 86.928 72.7841 86.396H74.1421C74.1888 86.8533 74.3755 87.2407 74.7021 87.558C75.0381 87.866 75.5235 88.02 76.1581 88.02C76.7648 88.02 77.2408 87.8707 77.5861 87.572C77.9408 87.264 78.1181 86.872 78.1181 86.396C78.1181 86.0227 78.0155 85.7193 77.8101 85.486C77.6048 85.2527 77.3481 85.0753 77.0401 84.954C76.7321 84.8327 76.3168 84.702 75.7941 84.562C75.1501 84.394 74.6321 84.226 74.2401 84.058C73.8575 83.89 73.5261 83.6287 73.2461 83.274C72.9755 82.91 72.8401 82.4247 72.8401 81.818C72.8401 81.286 72.9755 80.8147 73.2461 80.404C73.5168 79.9933 73.8948 79.676 74.3801 79.452C74.8748 79.228 75.4395 79.116 76.0741 79.116C76.9888 79.116 77.7355 79.3447 78.3141 79.802C78.9021 80.2593 79.2335 80.866 79.3081 81.622H77.9081C77.8615 81.2487 77.6655 80.922 77.3201 80.642C76.9748 80.3527 76.5175 80.208 75.9481 80.208C75.4161 80.208 74.9821 80.348 74.6461 80.628C74.3101 80.8987 74.1421 81.2813 74.1421 81.776C74.1421 82.1307 74.2401 82.42 74.4361 82.644C74.6415 82.868 74.8888 83.0407 75.1781 83.162C75.4768 83.274 75.8921 83.4047 76.4241 83.554C77.0681 83.7313 77.5861 83.9087 77.9781 84.086C78.3701 84.254 78.7061 84.52 78.9861 84.884C79.2661 85.2387 79.4061 85.724 79.4061 86.34C79.4061 86.816 79.2801 87.264 79.0281 87.684C78.7761 88.104 78.4028 88.4447 77.9081 88.706C77.4135 88.9673 76.8301 89.098 76.1581 89.098ZM82.5899 79.242V89H81.3159V79.242H82.5899ZM89.6822 83.974C90.0369 84.03 90.3589 84.1747 90.6482 84.408C90.9469 84.6413 91.1802 84.9307 91.3482 85.276C91.5256 85.6213 91.6142 85.99 91.6142 86.382C91.6142 86.8767 91.4882 87.3247 91.2362 87.726C90.9842 88.118 90.6156 88.4307 90.1302 88.664C89.6542 88.888 89.0896 89 88.4362 89H84.7962V79.242H88.2962C88.9589 79.242 89.5236 79.354 89.9902 79.578C90.4569 79.7927 90.8069 80.0867 91.0402 80.46C91.2736 80.8333 91.3902 81.2533 91.3902 81.72C91.3902 82.2987 91.2316 82.7793 90.9142 83.162C90.6062 83.5353 90.1956 83.806 89.6822 83.974ZM86.0702 83.456H88.2122C88.8096 83.456 89.2716 83.316 89.5982 83.036C89.9249 82.756 90.0882 82.3687 90.0882 81.874C90.0882 81.3793 89.9249 80.992 89.5982 80.712C89.2716 80.432 88.8002 80.292 88.1842 80.292H86.0702V83.456ZM88.3242 87.95C88.9589 87.95 89.4536 87.8007 89.8082 87.502C90.1629 87.2033 90.3402 86.788 90.3402 86.256C90.3402 85.7147 90.1536 85.29 89.7802 84.982C89.4069 84.6647 88.9076 84.506 88.2822 84.506H86.0702V87.95H88.3242ZM94.6912 87.964H98.1072V89H93.4172V79.242H94.6912V87.964ZM106.327 79.242L103.149 85.318V89H101.875V85.318L98.6831 79.242H100.097L102.505 84.184L104.913 79.242H106.327ZM108.112 89.084C107.869 89.084 107.664 89 107.496 88.832C107.328 88.664 107.244 88.4587 107.244 88.216C107.244 87.9733 107.328 87.768 107.496 87.6C107.664 87.432 107.869 87.348 108.112 87.348C108.345 87.348 108.541 87.432 108.7 87.6C108.868 87.768 108.952 87.9733 108.952 88.216C108.952 88.4587 108.868 88.664 108.7 88.832C108.541 89 108.345 89.084 108.112 89.084ZM111.296 77.856L111.142 80.642H110.26L110.092 77.856H111.296ZM113.186 77.856L113.032 80.642H112.15L111.982 77.856H113.186Z" fill="#C8C8C8"/>
<path d="M250.098 65.6324L253.21 57.086L244.373 60.1014C243.373 60.44 244.018 59.6338 244.018 59.6338L245.389 57.9084C246.034 57.086 247.098 57.086 247.098 57.086C247.098 57.086 246.034 57.086 245.389 56.2636L244.018 54.5382C244.018 54.5382 243.373 53.7158 244.373 54.0705L253.21 57.086V63.0039C253.21 63.0039 253.21 64.036 252.371 64.6648L250.598 65.9871C250.598 65.971 249.743 66.5999 250.098 65.6324ZM253.21 51.168V57.086L250.098 48.5395C249.743 47.572 250.581 48.2009 250.581 48.2009L252.355 49.5232C253.21 50.136 253.21 51.168 253.21 51.168Z" fill="#FAFAFA"/>
<path d="M249.345 79.9248H250.112L250.489 78.9018H251.933L252.324 79.9248H253.121L251.496 75.848H250.91L249.345 79.9248ZM250.699 78.315L251 77.5178C251.105 77.2019 251.166 77.0213 251.211 76.886H251.226C251.256 77.0213 251.316 77.2019 251.436 77.5178L251.722 78.3302H250.699V78.315ZM255.152 80C255.904 80 256.431 79.7442 256.671 79.2177C256.777 79.0071 256.822 78.7364 256.822 78.4203V75.878H256.085V78.3602C256.085 78.5859 256.055 78.7664 255.979 78.9168C255.844 79.2027 255.558 79.3682 255.152 79.3682C254.746 79.3682 254.46 79.2027 254.325 78.9168C254.249 78.7664 254.219 78.5859 254.219 78.3753V75.878H253.482V78.4203C253.482 78.7212 253.527 78.9921 253.633 79.2027C253.873 79.7292 254.4 80 255.152 80ZM258.567 79.9248H259.304V76.4948H260.387L260.583 75.863H257.379V76.4948H258.567V79.9248ZM261.109 79.9248H261.846V78.1647H263.787V79.9248H264.539V75.863H263.787V77.5479H261.846V75.878H261.109V79.9248ZM267.382 80C268.571 80 269.428 79.1726 269.428 77.924C269.428 76.7054 268.586 75.848 267.382 75.848C266.179 75.848 265.337 76.6904 265.337 77.924C265.337 79.1576 266.179 80 267.382 80ZM267.382 79.3682C266.63 79.3682 266.134 78.8265 266.134 77.909C266.134 76.9913 266.645 76.4496 267.382 76.4496C268.15 76.4496 268.631 77.0063 268.631 77.909C268.631 78.8417 268.119 79.3682 267.382 79.3682ZM270.211 79.9248H270.948V78.3452H271.294C271.399 78.3753 271.534 78.5408 271.73 78.9018L272.317 79.9248H273.159L272.482 78.7364C272.272 78.3602 272.106 78.1496 271.971 78.0744V78.0594C272.437 77.909 272.768 77.5479 272.768 77.0063C272.768 76.6001 272.602 76.2241 272.166 76.0135C271.955 75.9082 271.685 75.848 271.294 75.848H270.18V79.9248H270.211ZM270.963 77.7434V76.4798H271.309C271.534 76.4798 271.67 76.525 271.76 76.6001C271.94 76.7054 272.031 76.901 272.031 77.1116C272.031 77.3673 271.925 77.5479 271.745 77.6533C271.625 77.7134 271.489 77.7585 271.294 77.7585H270.963V77.7434ZM273.776 79.9248H274.513V75.863H273.776V79.9248ZM276.258 79.9248H276.995V76.4948H278.078L278.289 75.863H275.085V76.4948H276.273V79.9248H276.258ZM279.959 79.9248H280.711V78.3302L282.095 75.878H281.297L280.35 77.6682H280.335L279.387 75.878H278.575L279.959 78.3302V79.9248Z" fill="#FAFAFA"/>
<path d="M249.345 74.6595H250.082V72.3578V71.8463H250.097C250.173 71.9968 250.293 72.1472 250.368 72.2677L251.256 73.5463H251.587L252.384 72.2977C252.459 72.1924 252.61 71.9516 252.655 71.8463H252.67C252.655 72.0119 252.655 72.2225 252.655 72.388V74.6746H253.407V70.6129H252.73L251.752 72.1172C251.617 72.3279 251.511 72.5083 251.421 72.6588H251.406C251.316 72.4933 251.211 72.3428 251.06 72.1323L249.992 70.5977H249.315V74.6595H249.345ZM253.948 74.6595H254.716L255.092 73.6366H256.536L256.927 74.6595H257.724L256.1 70.5828H255.513L253.948 74.6595ZM255.318 73.0348L255.618 72.2375C255.724 71.9216 255.784 71.741 255.829 71.6058H255.844C255.874 71.741 255.934 71.9216 256.04 72.2375L256.325 73.0499H255.318V73.0348ZM258.281 74.6595H260.462V74.0278H259.018V70.5977H258.281V74.6595ZM261.41 74.6595H262.147V71.2297H263.23L263.441 70.5977H260.237V71.2297H261.425V74.6595H261.41ZM263.065 74.6595H263.832L264.208 73.6366H265.652L266.043 74.6595H266.841L265.216 70.5828H264.629L263.065 74.6595ZM264.434 73.0348L264.735 72.2375C264.84 71.9216 264.9 71.741 264.945 71.6058H264.96C264.99 71.741 265.051 71.9216 265.171 72.2375L265.457 73.0499H264.434V73.0348ZM272.151 72.6889H271.399V73.9826C271.234 74.0578 270.993 74.1029 270.722 74.1029C269.849 74.1029 269.338 73.5313 269.338 72.6588C269.338 71.8013 269.849 71.1996 270.827 71.1996C271.263 71.1996 271.625 71.3049 271.94 71.4703V70.7784C271.64 70.6731 271.233 70.5828 270.767 70.5828C269.413 70.5828 268.541 71.4853 268.541 72.7189C268.541 73.8773 269.323 74.7347 270.662 74.7347C271.234 74.7347 271.775 74.5994 272.136 74.4038V72.6889H272.151ZM272.633 74.6595H273.4L273.776 73.6366H275.22L275.611 74.6595H276.408L274.799 70.5828H274.197L272.633 74.6595ZM274.001 73.0348L274.302 72.2375C274.408 71.9216 274.468 71.741 274.513 71.6058H274.528C274.558 71.741 274.618 71.9216 274.738 72.2375L275.024 73.0499H274.001V73.0348ZM276.965 74.6595H277.702V72.3578V71.8463H277.717C277.792 71.9968 277.913 72.1472 277.988 72.2677L278.875 73.5463H279.221L280.019 72.2977C280.094 72.1924 280.244 71.9516 280.29 71.8463H280.305C280.29 72.0119 280.29 72.2225 280.29 72.388V74.6746H281.042V70.6129H280.365L279.387 72.1172C279.252 72.3279 279.146 72.5083 279.056 72.6588H279.041C278.951 72.4933 278.845 72.3428 278.71 72.1323L277.642 70.5977H276.965V74.6595ZM282.05 74.6595H282.787V70.5977H282.05V74.6595ZM287.405 74.6595V70.5977H286.653V72.764C286.653 72.9898 286.653 73.2304 286.668 73.441H286.653C286.533 73.2454 286.382 73.0499 286.202 72.8092L284.502 70.5828H283.765V74.6444H284.502V72.3428C284.502 72.1021 284.502 71.8765 284.487 71.7111H284.502C284.637 71.8915 284.772 72.1021 284.953 72.3279L286.713 74.6444H287.405V74.6595ZM291.798 72.6889H291.046V73.9826C290.88 74.0578 290.639 74.1029 290.369 74.1029C289.496 74.1029 288.985 73.5313 288.985 72.6588C288.985 71.8013 289.496 71.1996 290.474 71.1996C290.91 71.1996 291.271 71.3049 291.587 71.4703V70.7784C291.286 70.6731 290.88 70.5828 290.414 70.5828C289.06 70.5828 288.187 71.4853 288.187 72.7189C288.187 73.8773 288.97 74.7347 290.308 74.7347C290.88 74.7347 291.422 74.5994 291.783 74.4038V72.6889H291.798Z" fill="#FAFAFA"/>
<path d="M255.306 62.0203H258.434V55.2961C258.999 54.8768 259.724 54.6511 260.321 54.6511C261.482 54.6511 261.611 55.4734 261.611 56.4409V62.0203H264.739V55.5057V55.2961C265.304 54.8768 266.013 54.6511 266.61 54.6511C267.771 54.6511 267.916 55.4412 267.916 56.3926V62.0203H271.061V55.5863C271.061 52.845 269.384 51.9581 267.577 51.9581C266.562 51.9581 265.32 52.3935 264.127 53.3449C263.611 52.4741 262.692 51.9581 261.45 51.9581C260.273 51.9581 259.144 52.5225 258.241 53.1998L257.951 52.2H255.322V62.0203H255.306ZM276.656 66.9385C280.397 66.9385 282.155 65.3421 282.155 63.5845C282.155 59.9079 275.705 61.5043 275.705 59.8434C275.705 59.7466 275.705 59.6338 275.785 59.408C276.076 59.4886 276.495 59.537 276.898 59.537C279.413 59.537 281.171 58.1019 281.171 55.8443C281.171 55.0381 280.929 54.264 280.462 53.6674C280.623 53.6029 280.913 53.5868 281.042 53.5868C281.284 53.5868 281.607 53.6352 281.865 53.6835L282.445 51.5227C282.284 51.5066 281.945 51.4744 281.736 51.4744C280.316 51.4744 279.688 51.8291 279.123 52.3451C279.043 52.4258 278.978 52.4741 278.881 52.4096C278.462 52.1678 277.736 51.9581 276.833 51.9581C273.802 51.9581 272.576 53.9254 272.576 55.6508C272.576 56.9409 273.157 58.1341 274.302 58.7469C273.512 59.1823 272.996 59.8595 272.996 60.5529C272.996 61.0528 273.221 61.5204 273.641 61.7623C272.754 62.0687 271.899 62.875 271.899 64.0199C271.899 65.6485 273.56 66.9385 276.656 66.9385ZM277.108 64.8261C275.543 64.8261 274.657 64.2617 274.657 63.4555C274.657 63.0201 274.882 62.7137 275.076 62.5363C276.076 63.0523 279.204 62.7621 279.204 63.9231C279.204 64.5359 278.204 64.8261 277.108 64.8261ZM276.882 57.2472C275.947 57.2472 275.495 56.5055 275.495 55.7476C275.495 54.7155 276.092 54.2318 276.85 54.2318C277.801 54.2318 278.285 55.0219 278.285 55.7637C278.269 56.7473 277.672 57.2472 276.882 57.2472ZM289.218 62.0203H291.798C291.636 61.4882 291.636 60.698 291.636 60.0853V55.6831C291.636 53.2965 290.395 51.942 287.363 51.942C285.799 51.942 284.477 52.3129 283.316 52.8934L284.283 54.8607C284.993 54.4898 285.944 54.264 286.767 54.264C287.831 54.264 288.492 54.6349 288.492 55.5541V55.6508L286.928 55.7153C285.928 55.7637 285.041 55.9411 284.332 56.312C283.316 56.8441 282.687 57.6665 282.687 58.9887C282.687 60.8754 284.106 62.1977 286.025 62.1977C287.25 62.1977 288.105 61.7462 288.766 61.1657L289.218 62.0203ZM288.492 57.6504V59.4725C288.266 59.6176 287.75 59.8273 287.057 59.8273C286.315 59.8273 285.831 59.4886 285.831 58.8114C285.831 58.3921 285.976 58.1502 286.267 57.9567C286.541 57.7955 286.928 57.7149 287.428 57.6826L288.492 57.6504Z" fill="#FAFAFA"/>
<circle cx="317.798" cy="64" r="14.5882" fill="#FAFAFA"/>
<path d="M317.798 50.8235C325.063 50.8235 330.974 56.7345 330.974 64C330.974 71.2655 325.063 77.1765 317.798 77.1765C310.532 77.1765 304.621 71.2655 304.621 64C304.621 56.7345 310.532 50.8235 317.798 50.8235ZM317.798 48C308.961 48 301.798 55.1635 301.798 64C301.798 72.8365 308.961 80 317.798 80C326.634 80 333.798 72.8365 333.798 64C333.798 55.1635 326.634 48 317.798 48Z" fill="#0F0F0F"/>
<path d="M311.385 68.7845H309.526V61.7765C308.846 62.4118 308.045 62.8816 307.123 63.186V61.4985C307.609 61.3396 308.136 61.0386 308.705 60.5951C309.274 60.1518 309.664 59.6346 309.876 59.0433H311.385V68.7845Z" fill="#0F0F0F"/>
<path d="M315.759 63.5499C315.278 63.3469 314.929 63.068 314.71 62.7128C314.492 62.3578 314.383 61.9683 314.383 61.5448C314.383 60.8212 314.635 60.2236 315.14 59.7515C315.646 59.2794 316.364 59.0433 317.294 59.0433C318.216 59.0433 318.932 59.2794 319.442 59.7515C319.951 60.2236 320.206 60.8212 320.206 61.5448C320.206 61.9949 320.089 62.3952 319.856 62.7459C319.622 63.0966 319.293 63.3646 318.869 63.5499C319.408 63.7661 319.817 64.0816 320.097 64.4963C320.377 64.911 320.517 65.3897 320.517 65.9324C320.517 66.828 320.232 67.5559 319.66 68.1161C319.089 68.6765 318.329 68.9565 317.38 68.9565C316.498 68.9565 315.764 68.725 315.177 68.2618C314.484 67.7146 314.138 66.9646 314.138 66.0118C314.138 65.4868 314.268 65.0047 314.528 64.5658C314.789 64.1268 315.199 63.7882 315.759 63.5499ZM315.971 65.833C315.971 66.3448 316.102 66.744 316.365 67.0309C316.627 67.3176 316.955 67.461 317.347 67.461C317.731 67.461 318.049 67.323 318.3 67.0475C318.552 66.7717 318.678 66.3734 318.678 65.8529C318.678 65.3985 318.55 65.0333 318.294 64.7578C318.038 64.482 317.714 64.344 317.321 64.344C316.867 64.344 316.528 64.5006 316.305 64.8139C316.082 65.1271 315.971 65.4669 315.971 65.833ZM316.143 61.6771C316.143 62.0477 316.248 62.3367 316.457 62.5441C316.667 62.7514 316.946 62.8551 317.294 62.8551C317.647 62.8551 317.93 62.7502 318.142 62.5408C318.353 62.3312 318.459 62.0412 318.459 61.6705C318.459 61.3221 318.354 61.0429 318.145 60.8334C317.935 60.6239 317.658 60.5191 317.314 60.5191C316.957 60.5191 316.672 60.6249 316.461 60.8366C316.249 61.0484 316.143 61.3287 316.143 61.6771Z" fill="#0F0F0F"/>
<path d="M324.23 67.3882V64.8669H321.689V63.1263H324.23V60.6051H325.924V63.1263H328.472V64.8669H325.924V67.3882H324.23Z" fill="#0F0F0F"/>
<path d="M343.798 54C343.798 50.6863 346.484 48 349.798 48H368C371.314 48 374 50.6863 374 54V74C374 77.3137 371.314 80 368 80H349.798C346.484 80 343.798 77.3137 343.798 74V54Z" fill="#FAFAFA"/>
<path d="M350.745 75.2958C350.693 76.454 349.919 77.2073 348.884 77.2073C348.341 77.2073 347.874 76.9973 347.505 76.5822C347.198 76.2389 347.034 75.793 347.034 75.2907C347.034 74.7832 347.229 74.3169 347.603 73.948C347.956 73.594 348.392 73.4198 348.925 73.4198C349.668 73.4198 350.242 73.784 350.524 74.4141H349.873C349.632 74.1069 349.294 73.948 348.884 73.948C348.541 73.948 348.223 74.0808 347.982 74.327C347.726 74.5883 347.582 74.9474 347.582 75.2958C347.582 75.6801 347.715 76.0285 347.951 76.2746C348.202 76.5358 348.546 76.6847 348.884 76.6847C349.432 76.6847 349.863 76.3924 350.14 75.8083H348.489V75.2958H350.745Z" fill="#0F0F0F"/>
<path d="M351.312 77.1356H350.753L352.178 73.4917H352.69L354.115 77.1356H353.536L353.136 76.0749H351.722L351.312 77.1356ZM352.434 74.1784L351.911 75.562H352.947L352.434 74.1784Z" fill="#0F0F0F"/>
<path d="M354.314 77.1356V73.4917H355.098L356.154 76.3106L357.209 73.4917H357.983V77.1356H357.486L357.522 73.9735L356.338 77.1356H355.964L354.785 73.9735L354.821 77.1356H354.314Z" fill="#0F0F0F"/>
<path d="M360.304 77.2073C359.765 77.2073 359.309 77.0076 358.95 76.6283C358.607 76.2646 358.433 75.8133 358.433 75.2754C358.433 74.7732 358.622 74.3117 358.986 73.9582C359.345 73.6042 359.796 73.4198 360.314 73.4198C361.164 73.4198 361.892 73.9787 362.128 74.8754H361.164C360.97 74.5166 360.677 74.327 360.319 74.327C359.775 74.327 359.35 74.7471 359.35 75.2805C359.35 75.8595 359.801 76.3054 360.304 76.3054C360.647 76.3054 360.949 76.1209 361.144 75.7826H362.113C361.872 76.6692 361.18 77.2073 360.304 77.2073Z" fill="#0F0F0F"/>
<path d="M363.013 77.1356H362.039L363.438 73.4917H364.166L365.565 77.1356H364.581L364.402 76.6077H363.198L363.013 77.1356ZM363.802 74.6858L363.438 75.8541H364.161L363.802 74.6858Z" fill="#0F0F0F"/>
<path d="M365.636 77.1356V73.4917H366.845C367.229 73.4917 367.522 73.5172 367.768 73.6914C368.091 73.9169 368.26 74.2602 368.26 74.7113C368.26 75.3008 367.952 75.7416 367.435 75.8849L368.326 77.1356H367.224L366.527 75.962V77.1356H365.636ZM366.702 75.1726C367.143 75.1726 367.358 75.0599 367.358 74.7318C367.358 74.4294 367.168 74.3066 366.774 74.3066H366.527V75.1726H366.702Z" fill="#0F0F0F"/>
<path d="M368.73 77.1356V73.4917H370.709V74.2964H369.622V74.8857H370.709V75.6954H369.622V76.3311H370.709V77.1356H368.73Z" fill="#0F0F0F"/>
<path d="M370.063 63.4832C369.965 63.4279 369.857 63.3907 369.742 63.3747C369.714 63.37 369.687 63.3691 369.66 63.3664C369.645 63.3657 369.631 63.3619 369.616 63.3619H369.575C369.538 63.361 369.501 63.3592 369.465 63.3619H362.34C361.835 63.3619 361.426 63.7707 361.426 64.2746C361.426 64.7789 361.835 65.1877 362.34 65.1877H365.108C365.199 65.1884 365.273 65.2627 365.273 65.3542C365.273 65.407 365.245 65.4505 365.207 65.4809C363.689 66.2917 361.736 66.783 359.6 66.783C359.08 66.783 358.572 66.7528 358.077 66.6973V68.7699C358.508 68.8015 358.946 68.8195 359.39 68.8195C362.363 68.8195 365.068 68.0927 367.095 66.9051L367.095 66.908C367.12 66.8948 367.149 66.8873 367.179 66.8873C367.278 66.8873 367.358 66.9677 367.358 67.0669C367.358 67.0849 367.355 67.1023 367.35 67.1192L366.927 68.2662C366.705 68.8695 367.014 69.5386 367.617 69.7608C367.75 69.8099 367.886 69.8329 368.02 69.8329C368.493 69.8329 368.939 69.5417 369.112 69.071L370.64 64.9234C370.848 64.36 370.589 63.7439 370.063 63.4832Z" fill="#231F20"/>
<path d="M359.6 55.6513C361.753 55.6513 363.724 56.147 365.247 56.9693C365.247 56.9693 366.214 57.6654 366.674 56.9971C367.202 56.2304 366.148 55.7531 366.148 55.7531C364.258 54.8645 361.92 54.339 359.39 54.339C358.946 54.339 358.508 54.357 358.077 54.3886V55.7375C358.572 55.6819 359.08 55.6513 359.6 55.6513Z" fill="#231F20"/>
<path d="M348.659 50.8763C347.77 50.8763 347.049 51.5972 347.049 52.4864V70.0544C347.049 70.9438 347.77 71.6643 348.659 71.6643H358.077V68.7699C352.41 68.3559 348.009 65.2952 348.009 61.5793C348.009 57.8631 352.41 54.8028 358.077 54.3886V50.8763H348.659Z" fill="#0F0F0F"/>
<path d="M350.861 61.2173C350.861 63.96 353.977 66.2379 358.077 66.6973V55.7374C353.977 56.1966 350.861 58.4743 350.861 61.2173Z" fill="#0F0F0F"/>
</svg>
