<svg width="20" height="15" viewBox="0 0 20 15" fill="none" xmlns="http://www.w3.org/2000/svg">
<path d="M0.752569 12.9997H19.2525C19.6668 12.9997 20.0025 13.3355 20.0025 13.7497C20.0025 14.1294 19.7204 14.4432 19.3543 14.4928L19.2525 14.4997H0.752569C0.338349 14.4997 0.0025692 14.1639 0.0025692 13.7497C0.0025692 13.37 0.284719 13.0562 0.650799 13.0065L0.752569 12.9997ZM0.752569 6.5027H19.2525C19.6668 6.5027 20.0025 6.8385 20.0025 7.2527C20.0025 7.6324 19.7204 7.9462 19.3543 7.9959L19.2525 8.0027H0.752569C0.338349 8.0027 0.0025692 7.6669 0.0025692 7.2527C0.0025692 6.873 0.284719 6.5592 0.650799 6.5095L0.752569 6.5027ZM0.751709 0.00292969H19.2517C19.6659 0.00292969 20.0017 0.33872 20.0017 0.75293C20.0017 1.13263 19.7195 1.44642 19.3535 1.49608L19.2517 1.50293H0.751709C0.337489 1.50293 0.00170898 1.16714 0.00170898 0.75293C0.00170898 0.37323 0.283859 0.0594395 0.649939 0.00977945L0.751709 0.00292969Z" fill="#E1E1E1"/>
</svg>
