<svg width="62" height="69" viewBox="0 0 62 69" fill="none" xmlns="http://www.w3.org/2000/svg">
<path d="M40.89 24.35C40.4243 22.6533 39.5188 21.1096 38.265 19.8752C37.0112 18.6408 35.4537 17.7593 33.75 17.32C32.95 17.11 32.11 17 31.25 17C30.39 17 29.55 17.11 28.75 17.32C27.0463 17.7593 25.4888 18.6408 24.235 19.8752C22.9812 21.1096 22.0757 22.6533 21.61 24.35C21.37 25.19 21.25 26.08 21.25 27C21.25 27.92 21.38 28.82 21.62 29.67C22.0706 31.3161 22.9386 32.8179 24.14 34.03C25.4035 35.3084 26.9896 36.2207 28.73 36.67C29.54 36.89 30.38 37 31.25 37C32.12 37 32.96 36.89 33.77 36.67C35.5104 36.2207 37.0965 35.3084 38.36 34.03C39.5614 32.8179 40.4294 31.3161 40.88 29.67C41.12 28.82 41.25 27.92 41.25 27C41.25 26.08 41.13 25.19 40.89 24.35ZM39.83 23.98L38.4 26.47H35.3L33.75 23.78L35.3 21.1H38.16C38.89 21.94 39.46 22.91 39.83 23.98ZM29.7 29.7L28.15 27.02L29.7 24.33H32.8L34.35 27.02L32.8 29.7H29.7ZM37.05 20H35.3L34.41 18.47C35.38 18.83 36.27 19.35 37.05 20ZM29.58 18.06C30.12 17.95 30.68 17.9 31.25 17.9C31.82 17.9 32.38 17.95 32.92 18.06L34.35 20.55L32.8 23.23H29.7L28.15 20.55L29.58 18.06ZM28.09 18.47L27.2 20H25.45C26.2368 19.3439 27.1296 18.8266 28.09 18.47ZM24.34 21.1H27.2L28.75 23.78L27.2 26.47H24.1L22.67 23.98C23.04 22.91 23.61 21.94 24.34 21.1ZM22.15 27C22.15 26.49 22.19 25.99 22.28 25.51L23.15 27.02L22.28 28.52C22.19 28.03 22.15 27.52 22.15 27ZM22.67 30.04L24.1 27.56H27.2L28.75 30.25L27.2 32.93H24.36C23.6211 32.0807 23.0479 31.1004 22.67 30.04ZM25.48 34.03H27.2L28.06 35.52C27.1218 35.1731 26.2494 34.6692 25.48 34.03ZM32.93 35.94C32.39 36.05 31.83 36.1 31.25 36.1C30.67 36.1 30.11 36.05 29.57 35.94L28.15 33.48L29.71 30.79H32.79L34.35 33.48L32.93 35.94ZM34.44 35.52L35.3 34.03H37.02C36.2506 34.6692 35.3782 35.1731 34.44 35.52ZM38.14 32.93H35.3L33.75 30.25L35.3 27.56H38.4L39.83 30.04C39.4521 31.1004 38.8789 32.0807 38.14 32.93ZM40.22 28.52L39.35 27.02L40.22 25.51C40.31 25.99 40.35 26.49 40.35 27C40.35 27.51 40.31 28.03 40.22 28.52Z" fill="#A8A8A8"/>
<path d="M19.7726 50.077C19.2592 50.077 18.7972 49.989 18.3866 49.813C17.9759 49.6297 17.6532 49.373 17.4186 49.043C17.1839 48.713 17.0666 48.328 17.0666 47.888H18.4086C18.4379 48.218 18.5662 48.4893 18.7936 48.702C19.0282 48.9147 19.3546 49.021 19.7726 49.021C20.2052 49.021 20.5426 48.9183 20.7846 48.713C21.0266 48.5003 21.1476 48.229 21.1476 47.899C21.1476 47.6423 21.0706 47.4333 20.9166 47.272C20.7699 47.1107 20.5829 46.986 20.3556 46.898C20.1356 46.81 19.8276 46.7147 19.4316 46.612C18.9329 46.48 18.5259 46.348 18.2106 46.216C17.9026 46.0767 17.6386 45.864 17.4186 45.578C17.1986 45.292 17.0886 44.9107 17.0886 44.434C17.0886 43.994 17.1986 43.609 17.4186 43.279C17.6386 42.949 17.9466 42.696 18.3426 42.52C18.7386 42.344 19.1969 42.256 19.7176 42.256C20.4582 42.256 21.0632 42.443 21.5326 42.817C22.0092 43.1837 22.2732 43.6897 22.3246 44.335H20.9386C20.9166 44.0563 20.7846 43.818 20.5426 43.62C20.3006 43.422 19.9816 43.323 19.5856 43.323C19.2262 43.323 18.9329 43.4147 18.7056 43.598C18.4782 43.7813 18.3646 44.0453 18.3646 44.39C18.3646 44.6247 18.4342 44.819 18.5736 44.973C18.7202 45.1197 18.9036 45.237 19.1236 45.325C19.3436 45.413 19.6442 45.5083 20.0256 45.611C20.5316 45.7503 20.9422 45.8897 21.2576 46.029C21.5802 46.1683 21.8516 46.3847 22.0716 46.678C22.2989 46.964 22.4126 47.349 22.4126 47.833C22.4126 48.2217 22.3062 48.5883 22.0936 48.933C21.8882 49.2777 21.5839 49.5563 21.1806 49.769C20.7846 49.9743 20.3152 50.077 19.7726 50.077ZM25.2012 44.83C25.4139 44.5513 25.7036 44.3167 26.0702 44.126C26.4369 43.9353 26.8512 43.84 27.3132 43.84C27.8412 43.84 28.3216 43.972 28.7542 44.236C29.1942 44.4927 29.5389 44.8557 29.7882 45.325C30.0376 45.7943 30.1622 46.3333 30.1622 46.942C30.1622 47.5507 30.0376 48.097 29.7882 48.581C29.5389 49.0577 29.1942 49.4317 28.7542 49.703C28.3216 49.967 27.8412 50.099 27.3132 50.099C26.8512 50.099 26.4406 50.0073 26.0812 49.824C25.7219 49.6333 25.4286 49.3987 25.2012 49.12V52.882H23.9472V43.939H25.2012V44.83ZM28.8862 46.942C28.8862 46.524 28.7982 46.1647 28.6222 45.864C28.4536 45.556 28.2262 45.325 27.9402 45.171C27.6616 45.0097 27.3609 44.929 27.0382 44.929C26.7229 44.929 26.4222 45.0097 26.1362 45.171C25.8576 45.3323 25.6302 45.567 25.4542 45.875C25.2856 46.183 25.2012 46.546 25.2012 46.964C25.2012 47.382 25.2856 47.7487 25.4542 48.064C25.6302 48.372 25.8576 48.6067 26.1362 48.768C26.4222 48.9293 26.7229 49.01 27.0382 49.01C27.3609 49.01 27.6616 48.9293 27.9402 48.768C28.2262 48.5993 28.4536 48.3573 28.6222 48.042C28.7982 47.7267 28.8862 47.36 28.8862 46.942ZM34.0863 50.099C33.5143 50.099 32.9973 49.9707 32.5353 49.714C32.0733 49.45 31.7103 49.0833 31.4463 48.614C31.1823 48.1373 31.0503 47.5873 31.0503 46.964C31.0503 46.348 31.186 45.8017 31.4573 45.325C31.7287 44.8483 32.099 44.4817 32.5683 44.225C33.0377 43.9683 33.562 43.84 34.1413 43.84C34.7207 43.84 35.245 43.9683 35.7143 44.225C36.1837 44.4817 36.554 44.8483 36.8253 45.325C37.0967 45.8017 37.2323 46.348 37.2323 46.964C37.2323 47.58 37.093 48.1263 36.8143 48.603C36.5357 49.0797 36.1543 49.45 35.6703 49.714C35.1937 49.9707 34.6657 50.099 34.0863 50.099ZM34.0863 49.01C34.409 49.01 34.7097 48.933 34.9883 48.779C35.2743 48.625 35.5053 48.394 35.6813 48.086C35.8573 47.778 35.9453 47.404 35.9453 46.964C35.9453 46.524 35.861 46.1537 35.6923 45.853C35.5237 45.545 35.3 45.314 35.0213 45.16C34.7427 45.006 34.442 44.929 34.1193 44.929C33.7967 44.929 33.496 45.006 33.2173 45.16C32.946 45.314 32.7297 45.545 32.5683 45.853C32.407 46.1537 32.3263 46.524 32.3263 46.964C32.3263 47.6167 32.4913 48.1227 32.8213 48.482C33.1587 48.834 33.5803 49.01 34.0863 49.01ZM39.781 44.819C39.9643 44.511 40.2063 44.2727 40.507 44.104C40.815 43.928 41.178 43.84 41.596 43.84V45.138H41.277C40.7856 45.138 40.4116 45.2627 40.155 45.512C39.9056 45.7613 39.781 46.194 39.781 46.81V50H38.527V43.939H39.781V44.819ZM44.2667 44.962V48.317C44.2667 48.5443 44.318 48.7093 44.4207 48.812C44.5307 48.9073 44.714 48.955 44.9707 48.955H45.7407V50H44.7507C44.186 50 43.7533 49.868 43.4527 49.604C43.152 49.34 43.0017 48.911 43.0017 48.317V44.962H42.2867V43.939H43.0017V42.432H44.2667V43.939H45.7407V44.962H44.2667Z" fill="#A8A8A8"/>
</svg>
