<svg width="62" height="69" viewBox="0 0 62 69" fill="none" xmlns="http://www.w3.org/2000/svg">
<path d="M32.96 36.92C32.42 36.92 31.91 36.65 31.59 36.19C31.3 35.76 30.62 35.76 30.33 36.19C29.93 36.77 29.24 37.04 28.56 36.88C28.2264 36.8007 27.9258 36.6194 27.7 36.3613C27.4742 36.1033 27.3344 35.7812 27.3 35.44C27.2866 35.3139 27.2422 35.1931 27.1706 35.0884C27.0991 34.9837 27.0027 34.8984 26.89 34.84C26.781 34.781 26.659 34.75 26.535 34.75C26.4111 34.75 26.289 34.781 26.18 34.84C25.56 35.17 24.82 35.09 24.3 34.62C23.77 34.15 23.59 33.42 23.84 32.76C23.93 32.52 23.9 32.25 23.75 32.04C23.6 31.83 23.34 31.73 23.12 31.71C22.42 31.71 21.81 31.29 21.56 30.63C21.31 29.97 21.49 29.24 22.02 28.77C22.21 28.6 22.31 28.35 22.28 28.09C22.2665 27.9652 22.2219 27.8458 22.1503 27.7427C22.0787 27.6397 21.9823 27.5562 21.87 27.5C21.25 27.17 20.9 26.51 20.98 25.81C21.07 25.11 21.56 24.55 22.25 24.38C22.3706 24.3523 22.4823 24.2947 22.5749 24.2126C22.6675 24.1305 22.738 24.0264 22.78 23.91C22.87 23.67 22.84 23.4 22.69 23.19C22.29 22.61 22.29 21.86 22.69 21.27C23.09 20.69 23.79 20.43 24.47 20.6C24.72 20.66 24.97 20.6 25.16 20.43C25.35 20.26 25.45 20.01 25.42 19.75C25.33 19.05 25.68 18.38 26.3 18.05C26.92 17.72 27.66 17.82 28.18 18.29C28.37 18.46 28.62 18.53 28.87 18.46C29.12 18.4 29.31 18.22 29.4 17.98C29.517 17.6603 29.7293 17.3842 30.0083 17.1891C30.2874 16.994 30.6196 16.8894 30.96 16.8894C31.3005 16.8894 31.6327 16.994 31.9118 17.1891C32.1908 17.3842 32.4031 17.6603 32.52 17.98C32.61 18.22 32.81 18.4 33.05 18.46C33.3 18.52 33.55 18.46 33.74 18.29C34.26 17.82 35 17.72 35.62 18.05C36.25 18.38 36.59 19.04 36.5 19.75C36.47 20.01 36.56 20.26 36.76 20.43C36.95 20.6 37.2 20.66 37.45 20.6C38.13 20.43 38.83 20.69 39.23 21.27C39.63 21.85 39.63 22.6 39.23 23.19C39.08 23.4 39.05 23.67 39.14 23.91C39.23 24.15 39.43 24.32 39.68 24.38C40.36 24.55 40.86 25.1 40.94 25.8C41.03 26.5 40.68 27.17 40.05 27.49C39.9378 27.5462 39.8414 27.6297 39.7698 27.7327C39.6982 27.8358 39.6536 27.9552 39.64 28.08C39.61 28.34 39.7 28.58 39.9 28.76C40.43 29.23 40.61 29.96 40.36 30.62C40.11 31.27 39.5 31.7 38.8 31.7H38.79C38.54 31.7 38.31 31.82 38.16 32.03C38.01 32.24 37.98 32.51 38.07 32.75C38.32 33.41 38.14 34.14 37.61 34.61C37.08 35.07 36.34 35.16 35.73 34.83C35.621 34.771 35.499 34.74 35.375 34.74C35.2511 34.74 35.129 34.771 35.02 34.83C34.79 34.95 34.64 35.17 34.61 35.43C34.5646 35.8389 34.3703 36.2168 34.0641 36.4916C33.758 36.7663 33.3614 36.9189 32.95 36.92H32.96ZM26.53 33.85C26.79 33.85 27.06 33.91 27.3 34.04C27.79 34.3 28.12 34.78 28.19 35.33C28.24 35.72 28.52 35.93 28.77 35.99C28.89 36.02 29.3 36.08 29.58 35.68C29.89 35.22 30.41 34.95 30.96 34.95C31.51 34.95 32.03 35.22 32.34 35.68C32.62 36.09 33.03 36.02 33.15 35.99C33.4 35.93 33.68 35.72 33.73 35.33C33.79 34.78 34.12 34.29 34.62 34.04C35.11 33.78 35.69 33.79 36.18 34.04C36.61 34.27 36.95 34.02 37.04 33.94C37.23 33.77 37.39 33.45 37.25 33.08C37.05 32.56 37.12 31.98 37.44 31.52C37.75 31.07 38.26 30.8 38.81 30.8H38.82C39.31 30.8 39.49 30.42 39.53 30.31C39.62 30.07 39.62 29.71 39.32 29.45C38.91 29.08 38.7 28.54 38.76 27.99C38.83 27.44 39.16 26.96 39.65 26.71C40 26.53 40.09 26.19 40.06 25.93C40.0433 25.7736 39.9786 25.6262 39.8748 25.508C39.7709 25.3899 39.633 25.3067 39.48 25.27C38.95 25.14 38.51 24.75 38.31 24.24C38.11 23.72 38.18 23.14 38.5 22.68C38.73 22.35 38.65 22.01 38.5 21.8C38.43 21.7 38.16 21.37 37.69 21.49C37.4258 21.556 37.1494 21.5563 36.885 21.491C36.6206 21.4257 36.3762 21.2967 36.173 21.1153C35.9699 20.9338 35.8142 20.7055 35.7196 20.4501C35.625 20.1947 35.5942 19.92 35.63 19.65C35.6515 19.4935 35.6235 19.3342 35.55 19.1943C35.4765 19.0545 35.3611 18.9411 35.22 18.87C35.0836 18.7947 34.9267 18.7647 34.7721 18.7845C34.6174 18.8043 34.4731 18.8728 34.36 18.98C34.1577 19.1622 33.9139 19.292 33.6498 19.3582C33.3858 19.4245 33.1095 19.4251 32.8452 19.36C32.5809 19.2949 32.3365 19.1661 32.1334 18.9848C31.9303 18.8035 31.7747 18.5753 31.68 18.32C31.54 17.95 31.22 17.82 30.97 17.82C30.72 17.82 30.39 17.95 30.26 18.32C30.1654 18.5753 30.0098 18.8035 29.8067 18.9848C29.6036 19.1661 29.3592 19.2949 29.0949 19.36C28.8305 19.4251 28.5543 19.4245 28.2902 19.3582C28.0262 19.292 27.7824 19.1622 27.58 18.98C27.467 18.8728 27.3226 18.8043 27.168 18.7845C27.0134 18.7647 26.8565 18.7947 26.72 18.87C26.49 18.99 26.26 19.26 26.31 19.65C26.38 20.2 26.17 20.75 25.76 21.12C25.35 21.48 24.78 21.62 24.25 21.49C23.78 21.37 23.51 21.69 23.44 21.8C23.3465 21.9296 23.2961 22.0853 23.2961 22.245C23.2961 22.4048 23.3465 22.5605 23.44 22.69C23.76 23.15 23.83 23.73 23.63 24.25C23.43 24.77 23 25.15 22.46 25.28C22.08 25.37 21.91 25.68 21.88 25.94C21.85 26.2 21.94 26.54 22.29 26.72C22.78 26.97 23.11 27.46 23.18 28C23.25 28.55 23.04 29.1 22.62 29.46C22.32 29.72 22.32 30.07 22.41 30.32C22.45 30.44 22.62 30.8 23.13 30.81C23.68 30.81 24.19 31.08 24.5 31.53C24.82 31.99 24.89 32.57 24.69 33.09C24.55 33.46 24.7 33.78 24.9 33.95C24.99 34.03 25.33 34.28 25.76 34.05C26.01 33.92 26.27 33.85 26.54 33.85H26.53Z" fill="#A8A8A8"/>
<path d="M27.45 31C27.33 31 27.22 30.96 27.13 30.87C27.0873 30.8283 27.0534 30.7786 27.0302 30.7236C27.0071 30.6686 26.9951 30.6096 26.9951 30.55C26.9951 30.4903 27.0071 30.4313 27.0302 30.3763C27.0534 30.3214 27.0873 30.2716 27.13 30.23L34.25 23.1C34.43 22.92 34.71 22.92 34.89 23.1C35.07 23.28 35.07 23.56 34.89 23.74L27.77 30.87C27.68 30.96 27.57 31 27.45 31ZM33.28 31C32.8238 31 32.3864 30.8188 32.0638 30.4962C31.7412 30.1736 31.56 29.7361 31.56 29.28C31.56 28.8238 31.7412 28.3863 32.0638 28.0637C32.3864 27.7412 32.8238 27.56 33.28 27.56C33.7362 27.56 34.1737 27.7412 34.4962 28.0637C34.8188 28.3863 35 28.8238 35 29.28C35 29.7361 34.8188 30.1736 34.4962 30.4962C34.1737 30.8188 33.7362 31 33.28 31ZM33.28 28.46C32.83 28.46 32.46 28.83 32.46 29.28C32.46 29.73 32.83 30.1 33.28 30.1C33.73 30.1 34.1 29.73 34.1 29.28C34.1 28.83 33.73 28.46 33.28 28.46ZM28.72 26.45C28.2638 26.45 27.8264 26.2688 27.5038 25.9462C27.1812 25.6236 27 25.1861 27 24.73C27 24.2738 27.1812 23.8363 27.5038 23.5137C27.8264 23.1912 28.2638 23.01 28.72 23.01C29.1762 23.01 29.6137 23.1912 29.9362 23.5137C30.2588 23.8363 30.44 24.2738 30.44 24.73C30.44 25.1861 30.2588 25.6236 29.9362 25.9462C29.6137 26.2688 29.1762 26.45 28.72 26.45ZM28.72 23.91C28.27 23.91 27.9 24.28 27.9 24.73C27.9 25.18 28.27 25.55 28.72 25.55C29.17 25.55 29.54 25.18 29.54 24.73C29.54 24.28 29.17 23.91 28.72 23.91Z" fill="#A8A8A8"/>
<path d="M18.9497 44.632C18.9497 45.0207 18.858 45.3873 18.6747 45.732C18.4913 46.0767 18.198 46.359 17.7947 46.579C17.3913 46.7917 16.8743 46.898 16.2437 46.898H14.8577V50H13.6037V42.355H16.2437C16.8303 42.355 17.3253 42.4577 17.7287 42.663C18.1393 42.861 18.4437 43.1323 18.6417 43.477C18.847 43.8217 18.9497 44.2067 18.9497 44.632ZM16.2437 45.875C16.7203 45.875 17.076 45.7687 17.3107 45.556C17.5453 45.336 17.6627 45.028 17.6627 44.632C17.6627 43.796 17.1897 43.378 16.2437 43.378H14.8577V45.875H16.2437ZM21.4547 44.819C21.638 44.511 21.88 44.2727 22.1807 44.104C22.4887 43.928 22.8517 43.84 23.2697 43.84V45.138H22.9507C22.4593 45.138 22.0853 45.2627 21.8287 45.512C21.5793 45.7613 21.4547 46.194 21.4547 46.81V50H20.2007V43.939H21.4547V44.819ZM27.1063 50.099C26.5343 50.099 26.0173 49.9707 25.5553 49.714C25.0933 49.45 24.7303 49.0833 24.4663 48.614C24.2023 48.1373 24.0703 47.5873 24.0703 46.964C24.0703 46.348 24.206 45.8017 24.4773 45.325C24.7487 44.8483 25.119 44.4817 25.5883 44.225C26.0577 43.9683 26.582 43.84 27.1613 43.84C27.7407 43.84 28.265 43.9683 28.7343 44.225C29.2037 44.4817 29.574 44.8483 29.8453 45.325C30.1167 45.8017 30.2523 46.348 30.2523 46.964C30.2523 47.58 30.113 48.1263 29.8343 48.603C29.5557 49.0797 29.1743 49.45 28.6903 49.714C28.2137 49.9707 27.6857 50.099 27.1063 50.099ZM27.1063 49.01C27.429 49.01 27.7297 48.933 28.0083 48.779C28.2943 48.625 28.5253 48.394 28.7013 48.086C28.8773 47.778 28.9653 47.404 28.9653 46.964C28.9653 46.524 28.881 46.1537 28.7123 45.853C28.5437 45.545 28.32 45.314 28.0413 45.16C27.7627 45.006 27.462 44.929 27.1393 44.929C26.8167 44.929 26.516 45.006 26.2373 45.16C25.966 45.314 25.7497 45.545 25.5883 45.853C25.427 46.1537 25.3463 46.524 25.3463 46.964C25.3463 47.6167 25.5113 48.1227 25.8413 48.482C26.1787 48.834 26.6003 49.01 27.1063 49.01ZM38.884 43.84C39.3607 43.84 39.786 43.939 40.16 44.137C40.5413 44.335 40.8383 44.6283 41.051 45.017C41.271 45.4057 41.381 45.875 41.381 46.425V50H40.138V46.612C40.138 46.0693 40.0023 45.655 39.731 45.369C39.4597 45.0757 39.0893 44.929 38.62 44.929C38.1507 44.929 37.7767 45.0757 37.498 45.369C37.2267 45.655 37.091 46.0693 37.091 46.612V50H35.848V46.612C35.848 46.0693 35.7123 45.655 35.441 45.369C35.1697 45.0757 34.7993 44.929 34.33 44.929C33.8607 44.929 33.4867 45.0757 33.208 45.369C32.9367 45.655 32.801 46.0693 32.801 46.612V50H31.547V43.939H32.801V44.632C33.0063 44.3827 33.2667 44.1883 33.582 44.049C33.8973 43.9097 34.2347 43.84 34.594 43.84C35.078 43.84 35.5107 43.9427 35.892 44.148C36.2733 44.3533 36.5667 44.6503 36.772 45.039C36.9553 44.6723 37.2413 44.3827 37.63 44.17C38.0187 43.95 38.4367 43.84 38.884 43.84ZM45.6607 50.099C45.0887 50.099 44.5717 49.9707 44.1097 49.714C43.6477 49.45 43.2847 49.0833 43.0207 48.614C42.7567 48.1373 42.6247 47.5873 42.6247 46.964C42.6247 46.348 42.7603 45.8017 43.0317 45.325C43.303 44.8483 43.6733 44.4817 44.1427 44.225C44.612 43.9683 45.1363 43.84 45.7157 43.84C46.295 43.84 46.8193 43.9683 47.2887 44.225C47.758 44.4817 48.1283 44.8483 48.3997 45.325C48.671 45.8017 48.8067 46.348 48.8067 46.964C48.8067 47.58 48.6673 48.1263 48.3887 48.603C48.11 49.0797 47.7287 49.45 47.2447 49.714C46.768 49.9707 46.24 50.099 45.6607 50.099ZM45.6607 49.01C45.9833 49.01 46.284 48.933 46.5627 48.779C46.8487 48.625 47.0797 48.394 47.2557 48.086C47.4317 47.778 47.5197 47.404 47.5197 46.964C47.5197 46.524 47.4353 46.1537 47.2667 45.853C47.098 45.545 46.8743 45.314 46.5957 45.16C46.317 45.006 46.0163 44.929 45.6937 44.929C45.371 44.929 45.0703 45.006 44.7917 45.16C44.5203 45.314 44.304 45.545 44.1427 45.853C43.9813 46.1537 43.9007 46.524 43.9007 46.964C43.9007 47.6167 44.0657 48.1227 44.3957 48.482C44.733 48.834 45.1547 49.01 45.6607 49.01Z" fill="#A8A8A8"/>
</svg>
