<svg width="62" height="69" viewBox="0 0 62 69" fill="none" xmlns="http://www.w3.org/2000/svg">
<mask id="path-1-inside-1_7092_249" fill="white">
<path d="M0.25 0H61.25V69H0.25V0Z"/>
</mask>
<path d="M0.25 3H61.25V-3H0.25V3Z" fill="#FFD60A" mask="url(#path-1-inside-1_7092_249)"/>
<path d="M30.75 17C25.24 17 20.75 21.49 20.75 27C20.75 32.51 25.24 37 30.75 37C36.26 37 40.75 32.51 40.75 27C40.75 21.49 36.26 17 30.75 17ZM39.88 26.57H38.35C38.2881 25.5263 38.016 24.5059 37.55 23.57L38.88 22.8C39.46 23.93 39.82 25.2 39.88 26.56V26.57ZM38.44 22.06L37.11 22.84C36.5343 21.9643 35.7857 21.2157 34.91 20.64L35.69 19.31C36.7902 20.0302 37.7298 20.9698 38.45 22.07L38.44 22.06ZM31.18 17.87C32.54 17.94 33.81 18.29 34.94 18.87L34.17 20.2C33.26 19.74 32.25 19.46 31.17 19.4V17.87H31.18ZM30.32 17.87V19.4C29.25 19.47 28.23 19.74 27.32 20.2L26.55 18.87C27.68 18.29 28.95 17.93 30.31 17.87H30.32ZM25.81 19.31L26.58 20.64C25.72 21.21 24.96 21.97 24.39 22.83L23.06 22.06C23.7802 20.9598 24.7198 20.0202 25.82 19.3L25.81 19.31ZM22.62 22.81L23.95 23.58C23.49 24.49 23.21 25.5 23.15 26.58H21.62C21.69 25.22 22.04 23.95 22.62 22.82V22.81ZM21.62 27.43H23.15C23.22 28.5 23.49 29.52 23.95 30.43L22.62 31.2C22.04 30.07 21.68 28.8 21.62 27.44V27.43ZM23.06 31.94L24.39 31.16C24.96 32.03 25.72 32.79 26.59 33.36L25.81 34.69C24.7098 33.9698 23.7702 33.0302 23.05 31.93L23.06 31.94ZM30.32 36.13C29.0099 36.0672 27.7282 35.7264 26.56 35.13L27.33 33.8C28.24 34.26 29.25 34.54 30.33 34.6V36.13H30.32ZM30.32 33.73C29.41 33.68 28.54 33.43 27.76 33.04C27.4953 32.924 27.2439 32.7798 27.01 32.61C26.2601 32.1201 25.6199 31.4799 25.13 30.73C24.9602 30.4961 24.816 30.2447 24.7 29.98C24.31 29.2 24.06 28.33 24.02 27.42C23.99 27.28 23.99 27.13 23.99 26.99C23.99 26.85 23.99 26.7 24.02 26.56C24.06 25.65 24.31 24.78 24.7 24C24.81 23.74 24.96 23.49 25.13 23.25C25.62 22.5 26.26 21.86 27.01 21.37C27.25 21.2 27.5 21.05 27.76 20.94C28.54 20.55 29.41 20.3 30.32 20.26C30.46 20.23 30.61 20.23 30.75 20.23C30.89 20.23 31.04 20.23 31.18 20.26C32.09 20.3 32.96 20.55 33.74 20.94C34 21.05 34.25 21.2 34.49 21.37C35.24 21.86 35.88 22.5 36.37 23.25C36.54 23.49 36.69 23.74 36.8 24C37.19 24.78 37.44 25.65 37.49 26.56C37.51 26.7 37.51 26.85 37.51 26.99C37.51 27.13 37.51 27.28 37.49 27.42C37.44 28.33 37.19 29.2 36.8 29.98C36.69 30.24 36.54 30.49 36.37 30.73C35.88 31.48 35.24 32.12 34.49 32.61C34.25 32.78 34 32.93 33.74 33.04C32.96 33.43 32.09 33.68 31.18 33.73C31.04 33.75 30.89 33.75 30.75 33.75C30.61 33.75 30.46 33.75 30.32 33.73ZM31.18 36.13V34.6C32.25 34.53 33.27 34.26 34.18 33.8L34.95 35.13C33.82 35.71 32.55 36.07 31.19 36.13H31.18ZM35.69 34.69L34.92 33.36C35.78 32.79 36.54 32.03 37.11 31.17L38.44 31.94C37.7198 33.0402 36.7802 33.9798 35.68 34.7L35.69 34.69ZM38.88 31.19L37.55 30.42C38.01 29.51 38.29 28.5 38.35 27.42H39.88C39.8172 28.7301 39.4764 30.0118 38.88 31.18V31.19Z" fill="#FAFAFA"/>
<path d="M31.26 26.56V24.1C31.73 24.29 32.05 24.73 32.05 25.25C32.05 25.53 32.27 25.75 32.55 25.75C32.83 25.75 33.05 25.53 33.05 25.25C33.05 24.18 32.28 23.28 31.26 23.06V22.49C31.26 22.21 31.04 21.99 30.76 21.99C30.48 21.99 30.26 22.21 30.26 22.49V23.06C29.24 23.28 28.47 24.18 28.47 25.25C28.47 26.32 29.24 27.22 30.26 27.44V29.9C29.79 29.71 29.47 29.27 29.47 28.75C29.47 28.47 29.25 28.25 28.97 28.25C28.69 28.25 28.47 28.47 28.47 28.75C28.47 29.82 29.24 30.72 30.26 30.94V31.51C30.26 31.79 30.48 32.01 30.76 32.01C31.04 32.01 31.26 31.79 31.26 31.51V30.94C32.28 30.72 33.05 29.82 33.05 28.75C33.05 27.68 32.28 26.78 31.26 26.56ZM30.26 24.1V26.4C29.79 26.21 29.47 25.77 29.47 25.25C29.47 24.73 29.8 24.29 30.26 24.1ZM32.05 28.75C32.05 29.27 31.72 29.71 31.26 29.9V27.6C31.73 27.79 32.05 28.23 32.05 28.75Z" fill="#FAFAFA"/>
<path d="M11.5708 46.161C11.5708 45.413 11.7431 44.742 12.0878 44.148C12.4398 43.554 12.9128 43.092 13.5068 42.762C14.1081 42.4247 14.7644 42.256 15.4758 42.256C16.2898 42.256 17.0121 42.4577 17.6428 42.861C18.2808 43.257 18.7428 43.8217 19.0288 44.555H17.5218C17.3238 44.1517 17.0488 43.851 16.6968 43.653C16.3448 43.455 15.9378 43.356 15.4758 43.356C14.9698 43.356 14.5188 43.4697 14.1228 43.697C13.7268 43.9243 13.4151 44.2507 13.1878 44.676C12.9678 45.1013 12.8578 45.5963 12.8578 46.161C12.8578 46.7257 12.9678 47.2207 13.1878 47.646C13.4151 48.0713 13.7268 48.4013 14.1228 48.636C14.5188 48.8633 14.9698 48.977 15.4758 48.977C15.9378 48.977 16.3448 48.878 16.6968 48.68C17.0488 48.482 17.3238 48.1813 17.5218 47.778H19.0288C18.7428 48.5113 18.2808 49.076 17.6428 49.472C17.0121 49.868 16.2898 50.066 15.4758 50.066C14.7571 50.066 14.1008 49.901 13.5068 49.571C12.9128 49.2337 12.4398 48.768 12.0878 48.174C11.7431 47.58 11.5708 46.909 11.5708 46.161ZM20.1336 46.942C20.1336 46.3333 20.2582 45.7943 20.5076 45.325C20.7642 44.8557 21.1089 44.4927 21.5416 44.236C21.9816 43.972 22.4656 43.84 22.9936 43.84C23.4702 43.84 23.8846 43.9353 24.2366 44.126C24.5959 44.3093 24.8819 44.5403 25.0946 44.819V43.939H26.3596V50H25.0946V49.098C24.8819 49.384 24.5922 49.6223 24.2256 49.813C23.8589 50.0037 23.4409 50.099 22.9716 50.099C22.4509 50.099 21.9742 49.967 21.5416 49.703C21.1089 49.4317 20.7642 49.0577 20.5076 48.581C20.2582 48.097 20.1336 47.5507 20.1336 46.942ZM25.0946 46.964C25.0946 46.546 25.0066 46.183 24.8306 45.875C24.6619 45.567 24.4382 45.3323 24.1596 45.171C23.8809 45.0097 23.5802 44.929 23.2576 44.929C22.9349 44.929 22.6342 45.0097 22.3556 45.171C22.0769 45.325 21.8496 45.556 21.6736 45.864C21.5049 46.1647 21.4206 46.524 21.4206 46.942C21.4206 47.36 21.5049 47.7267 21.6736 48.042C21.8496 48.3573 22.0769 48.5993 22.3556 48.768C22.6416 48.9293 22.9422 49.01 23.2576 49.01C23.5802 49.01 23.8809 48.9293 24.1596 48.768C24.4382 48.6067 24.6619 48.372 24.8306 48.064C25.0066 47.7487 25.0946 47.382 25.0946 46.964ZM30.2617 50.099C29.785 50.099 29.356 50.0147 28.9747 49.846C28.6007 49.67 28.3037 49.4353 28.0837 49.142C27.8637 48.8413 27.7463 48.5077 27.7317 48.141H29.0297C29.0517 48.3977 29.1727 48.614 29.3927 48.79C29.62 48.9587 29.9023 49.043 30.2397 49.043C30.5917 49.043 30.863 48.977 31.0537 48.845C31.2517 48.7057 31.3507 48.5297 31.3507 48.317C31.3507 48.0897 31.2407 47.921 31.0207 47.811C30.808 47.701 30.467 47.58 29.9977 47.448C29.543 47.3233 29.1727 47.2023 28.8867 47.085C28.6007 46.9677 28.3513 46.788 28.1387 46.546C27.9333 46.304 27.8307 45.985 27.8307 45.589C27.8307 45.2663 27.926 44.973 28.1167 44.709C28.3073 44.4377 28.5787 44.225 28.9307 44.071C29.29 43.917 29.7007 43.84 30.1627 43.84C30.852 43.84 31.4057 44.016 31.8237 44.368C32.249 44.7127 32.4763 45.1857 32.5057 45.787H31.2517C31.2297 45.5157 31.1197 45.2993 30.9217 45.138C30.7237 44.9767 30.456 44.896 30.1187 44.896C29.7887 44.896 29.5357 44.9583 29.3597 45.083C29.1837 45.2077 29.0957 45.3727 29.0957 45.578C29.0957 45.7393 29.1543 45.875 29.2717 45.985C29.389 46.095 29.532 46.183 29.7007 46.249C29.8693 46.3077 30.1187 46.3847 30.4487 46.48C30.8887 46.5973 31.248 46.7183 31.5267 46.843C31.8127 46.9603 32.0583 47.1363 32.2637 47.371C32.469 47.6057 32.5753 47.9173 32.5827 48.306C32.5827 48.6507 32.4873 48.9587 32.2967 49.23C32.106 49.5013 31.8347 49.714 31.4827 49.868C31.138 50.022 30.731 50.099 30.2617 50.099ZM34.6306 43.136C34.4033 43.136 34.2126 43.059 34.0586 42.905C33.9046 42.751 33.8276 42.5603 33.8276 42.333C33.8276 42.1057 33.9046 41.915 34.0586 41.761C34.2126 41.607 34.4033 41.53 34.6306 41.53C34.8506 41.53 35.0376 41.607 35.1916 41.761C35.3456 41.915 35.4226 42.1057 35.4226 42.333C35.4226 42.5603 35.3456 42.751 35.1916 42.905C35.0376 43.059 34.8506 43.136 34.6306 43.136ZM35.2466 43.939V50H33.9926V43.939H35.2466ZM40.006 43.84C40.4827 43.84 40.908 43.939 41.282 44.137C41.6634 44.335 41.9604 44.6283 42.173 45.017C42.3857 45.4057 42.492 45.875 42.492 46.425V50H41.249V46.612C41.249 46.0693 41.1134 45.655 40.842 45.369C40.5707 45.0757 40.2004 44.929 39.731 44.929C39.2617 44.929 38.8877 45.0757 38.609 45.369C38.3377 45.655 38.202 46.0693 38.202 46.612V50H36.948V43.939H38.202V44.632C38.4074 44.3827 38.6677 44.1883 38.983 44.049C39.3057 43.9097 39.6467 43.84 40.006 43.84ZM46.7756 50.099C46.2036 50.099 45.6866 49.9707 45.2246 49.714C44.7626 49.45 44.3996 49.0833 44.1356 48.614C43.8716 48.1373 43.7396 47.5873 43.7396 46.964C43.7396 46.348 43.8752 45.8017 44.1466 45.325C44.4179 44.8483 44.7882 44.4817 45.2576 44.225C45.7269 43.9683 46.2512 43.84 46.8306 43.84C47.4099 43.84 47.9342 43.9683 48.4036 44.225C48.8729 44.4817 49.2432 44.8483 49.5146 45.325C49.7859 45.8017 49.9216 46.348 49.9216 46.964C49.9216 47.58 49.7822 48.1263 49.5036 48.603C49.2249 49.0797 48.8436 49.45 48.3596 49.714C47.8829 49.9707 47.3549 50.099 46.7756 50.099ZM46.7756 49.01C47.0982 49.01 47.3989 48.933 47.6776 48.779C47.9636 48.625 48.1946 48.394 48.3706 48.086C48.5466 47.778 48.6346 47.404 48.6346 46.964C48.6346 46.524 48.5502 46.1537 48.3816 45.853C48.2129 45.545 47.9892 45.314 47.7106 45.16C47.4319 45.006 47.1312 44.929 46.8086 44.929C46.4859 44.929 46.1852 45.006 45.9066 45.16C45.6352 45.314 45.4189 45.545 45.2576 45.853C45.0962 46.1537 45.0156 46.524 45.0156 46.964C45.0156 47.6167 45.1806 48.1227 45.5106 48.482C45.8479 48.834 46.2696 49.01 46.7756 49.01Z" fill="#FAFAFA"/>
</svg>
