<svg width="61" height="69" viewBox="0 0 61 69" fill="none" xmlns="http://www.w3.org/2000/svg">
<path d="M29.49 36.95C29.82 36.98 30.16 37 30.5 37C30.84 37 31.18 36.98 31.51 36.95H29.49ZM30.5 17C24.99 17 20.5 21.49 20.5 27C20.5 29.38 21.32 31.54 22.7 33.25C22.95 33.57 23.22 33.87 23.51 34.14L23.57 34.2C24.03 34.65 24.54 35.05 25.08 35.39C26.37 36.24 27.88 36.79 29.49 36.95H31.51C33.16 36.78 34.7 36.21 36.02 35.33C36.55 34.99 37.04 34.59 37.49 34.14H37.5C37.79 33.86 38.05 33.57 38.3 33.25C39.7306 31.4818 40.5076 29.2744 40.5 27C40.5 21.49 36.01 17 30.5 17ZM37.79 32.28C37.69 32.42 37.58 32.55 37.48 32.69C37.34 32.85 37.2 33.01 37.05 33.17C36.89 33.34 36.72 33.51 36.54 33.66C34.94 35.12 32.82 36 30.5 36C28.18 36 26.11 35.14 24.52 33.72C24.3203 33.547 24.13 33.3634 23.95 33.17C23.82 33.04 23.7 32.9 23.57 32.76L23.21 32.28C22.0923 30.747 21.4933 28.8972 21.5 27C21.5 22.04 25.54 18.01 30.5 18.01C35.46 18.01 39.5 22.04 39.5 27C39.5 28.98 38.87 30.8 37.79 32.28Z" fill="#A8A8A8"/>
<path d="M30.5301 19.91C28.3101 19.91 26.5001 21.72 26.5001 23.95C26.5001 26.18 28.3101 27.99 30.5301 27.99C32.7501 27.99 34.5601 26.18 34.5601 23.95C34.5601 21.72 32.7501 19.91 30.5301 19.91ZM30.5301 27.09C28.8001 27.09 27.3901 25.68 27.3901 23.95C27.3901 22.22 28.8001 20.81 30.5301 20.81C32.2601 20.81 33.6701 22.22 33.6701 23.95C33.6701 25.68 32.2601 27.09 30.5301 27.09ZM33.0801 29.02H27.9801C25.7701 29.02 23.9201 30.64 23.5701 32.76C23.7001 32.9 23.8201 33.04 23.9501 33.17C24.1301 33.36 24.3201 33.55 24.5201 33.72C24.5101 33.64 24.5101 33.57 24.5101 33.49C24.5101 31.58 26.0701 30.02 27.9801 30.02H33.0801C35.0001 30.02 36.5501 31.58 36.5501 33.49C36.5501 33.55 36.5501 33.6 36.5401 33.66C36.7201 33.51 36.8901 33.34 37.0501 33.17C37.2001 33.01 37.3401 32.85 37.4801 32.69C37.2928 31.6597 36.7498 30.7279 35.9456 30.0571C35.1414 29.3864 34.1272 29.0193 33.0801 29.02ZM29.4901 36.95C29.8201 36.98 30.1601 37 30.5001 37C30.8401 37 31.1801 36.98 31.5101 36.95H29.4901Z" fill="#A8A8A8"/>
<path d="M19.4957 44.632C19.4957 45.0207 19.4041 45.3873 19.2207 45.732C19.0374 46.0767 18.7441 46.359 18.3407 46.579C17.9374 46.7917 17.4204 46.898 16.7897 46.898H15.4037V50H14.1497V42.355H16.7897C17.3764 42.355 17.8714 42.4577 18.2747 42.663C18.6854 42.861 18.9897 43.1323 19.1877 43.477C19.3931 43.8217 19.4957 44.2067 19.4957 44.632ZM16.7897 45.875C17.2664 45.875 17.6221 45.7687 17.8567 45.556C18.0914 45.336 18.2087 45.028 18.2087 44.632C18.2087 43.796 17.7357 43.378 16.7897 43.378H15.4037V45.875H16.7897ZM22.0007 44.819C22.1841 44.511 22.4261 44.2727 22.7267 44.104C23.0347 43.928 23.3977 43.84 23.8157 43.84V45.138H23.4967C23.0054 45.138 22.6314 45.2627 22.3747 45.512C22.1254 45.7613 22.0007 46.194 22.0007 46.81V50H20.7467V43.939H22.0007V44.819ZM27.6524 50.099C27.0804 50.099 26.5634 49.9707 26.1014 49.714C25.6394 49.45 25.2764 49.0833 25.0124 48.614C24.7484 48.1373 24.6164 47.5873 24.6164 46.964C24.6164 46.348 24.7521 45.8017 25.0234 45.325C25.2948 44.8483 25.6651 44.4817 26.1344 44.225C26.6038 43.9683 27.1281 43.84 27.7074 43.84C28.2868 43.84 28.8111 43.9683 29.2804 44.225C29.7498 44.4817 30.1201 44.8483 30.3914 45.325C30.6628 45.8017 30.7984 46.348 30.7984 46.964C30.7984 47.58 30.6591 48.1263 30.3804 48.603C30.1018 49.0797 29.7204 49.45 29.2364 49.714C28.7598 49.9707 28.2318 50.099 27.6524 50.099ZM27.6524 49.01C27.9751 49.01 28.2758 48.933 28.5544 48.779C28.8404 48.625 29.0714 48.394 29.2474 48.086C29.4234 47.778 29.5114 47.404 29.5114 46.964C29.5114 46.524 29.4271 46.1537 29.2584 45.853C29.0898 45.545 28.8661 45.314 28.5874 45.16C28.3088 45.006 28.0081 44.929 27.6854 44.929C27.3628 44.929 27.0621 45.006 26.7834 45.16C26.5121 45.314 26.2958 45.545 26.1344 45.853C25.9731 46.1537 25.8924 46.524 25.8924 46.964C25.8924 47.6167 26.0574 48.1227 26.3874 48.482C26.7248 48.834 27.1464 49.01 27.6524 49.01ZM34.6341 44.962H33.5121V50H32.2471V44.962H31.5321V43.939H32.2471V43.51C32.2471 42.8133 32.4304 42.3073 32.7971 41.992C33.1711 41.6693 33.7541 41.508 34.5461 41.508V42.553C34.1647 42.553 33.8971 42.6263 33.7431 42.773C33.5891 42.9123 33.5121 43.158 33.5121 43.51V43.939H34.6341V44.962ZM36.4384 43.136C36.2111 43.136 36.0204 43.059 35.8664 42.905C35.7124 42.751 35.6354 42.5603 35.6354 42.333C35.6354 42.1057 35.7124 41.915 35.8664 41.761C36.0204 41.607 36.2111 41.53 36.4384 41.53C36.6584 41.53 36.8454 41.607 36.9994 41.761C37.1534 41.915 37.2304 42.1057 37.2304 42.333C37.2304 42.5603 37.1534 42.751 36.9994 42.905C36.8454 43.059 36.6584 43.136 36.4384 43.136ZM37.0544 43.939V50H35.8004V43.939H37.0544ZM40.0098 41.86V50H38.7558V41.86H40.0098ZM47.2662 46.821C47.2662 47.0483 47.2515 47.2537 47.2222 47.437H42.5912C42.6279 47.921 42.8075 48.3097 43.1302 48.603C43.4529 48.8963 43.8489 49.043 44.3182 49.043C44.9929 49.043 45.4695 48.7607 45.7482 48.196H47.1012C46.9179 48.7533 46.5842 49.2117 46.1002 49.571C45.6235 49.923 45.0295 50.099 44.3182 50.099C43.7389 50.099 43.2182 49.9707 42.7562 49.714C42.3015 49.45 41.9422 49.0833 41.6782 48.614C41.4215 48.1373 41.2932 47.5873 41.2932 46.964C41.2932 46.3407 41.4179 45.7943 41.6672 45.325C41.9239 44.8483 42.2795 44.4817 42.7342 44.225C43.1962 43.9683 43.7242 43.84 44.3182 43.84C44.8902 43.84 45.3999 43.9647 45.8472 44.214C46.2945 44.4633 46.6429 44.8153 46.8922 45.27C47.1415 45.7173 47.2662 46.2343 47.2662 46.821ZM45.9572 46.425C45.9499 45.963 45.7849 45.5927 45.4622 45.314C45.1395 45.0353 44.7399 44.896 44.2632 44.896C43.8305 44.896 43.4602 45.0353 43.1522 45.314C42.8442 45.5853 42.6609 45.9557 42.6022 46.425H45.9572Z" fill="#A8A8A8"/>
</svg>
