<svg width="20" height="20" viewBox="0 0 20 20" fill="none" xmlns="http://www.w3.org/2000/svg">
<path d="M16.0353 13.096C15.4023 13.5979 14.6737 13.9844 13.8811 14.2236C13.9592 14.7203 13.9998 15.2294 13.9999 15.748C17.4504 14.8599 19.9999 11.7277 19.9999 8C19.9999 7.35266 19.923 6.72328 19.7779 6.12048C19.6044 5.39981 19.3333 4.71712 18.9794 4.08722C18.2589 2.80467 17.1951 1.74093 15.9125 1.02041C15.2826 0.66653 14.6 0.39544 13.8794 0.22192C13.2766 0.07681 12.6472 0 11.9999 0C8.2722 0 5.14004 2.54955 4.25195 6C4.77053 6.00011 5.27964 6.0407 5.77631 6.11879C6.01554 5.32626 6.40201 4.59762 6.90391 3.96465L16.0353 13.096ZM17.0959 12.0353L13.0606 8L13.822 7.23859C14.5103 7.71849 15.3472 7.99991 16.2499 7.99991C17.0637 7.99991 17.8241 7.77119 18.4702 7.37454C18.4899 7.58037 18.4999 7.78901 18.4999 8C18.4999 9.5247 17.975 10.9268 17.0959 12.0353ZM14.2239 1.89042C14.8843 2.13086 15.4947 2.47532 16.0353 2.90399L13.8484 5.09083C13.6265 4.69414 13.4999 4.2368 13.4999 3.74991C13.4999 3.03289 13.7743 2.37996 14.2239 1.89042ZM12.7613 6.17794L11.9999 6.93934L7.96457 2.90399C9.0732 2.02496 10.4752 1.5 11.9999 1.5C12.2109 1.5 12.4195 1.51005 12.6252 1.52969C12.2286 2.17584 11.9999 2.93617 11.9999 3.74991C11.9999 4.65265 12.2814 5.48965 12.7613 6.17794ZM18.1095 5.77592C17.6199 6.22548 16.967 6.49991 16.2499 6.49991C15.7631 6.49991 15.3058 6.3734 14.9091 6.15147L17.0959 3.96465C17.5246 4.50522 17.869 5.11558 18.1095 5.77592ZM2.25 8.5C1.83579 8.5 1.5 8.8358 1.5 9.25V11.25C1.5 15.2541 4.74594 18.5 8.75 18.5H10.75C11.1642 18.5 11.5 18.1642 11.5 17.75V15.75C11.5 11.7459 8.2541 8.5 4.25 8.5H2.25ZM0 9.25C0 8.0074 1.00736 7 2.25 7H4.25C9.0825 7 13 10.9175 13 15.75V17.75C13 18.9926 11.9926 20 10.75 20H8.75C3.91751 20 0 16.0825 0 11.25V9.25ZM5.78033 11.7197C5.48744 11.4268 5.01256 11.4268 4.71967 11.7197C4.42678 12.0126 4.42678 12.4874 4.71967 12.7803L7.21967 15.2803C7.51256 15.5732 7.98744 15.5732 8.2803 15.2803C8.5732 14.9874 8.5732 14.5126 8.2803 14.2197L5.78033 11.7197Z" fill="#E1E1E1"/>
</svg>
